<?xml version="1.0" encoding="utf-8"?>
<svg width="64" height="64" viewBox="0 0 64 64" fill="none" xmlns="http://www.w3.org/2000/svg">
  <g>
    <rect width="64" height="64" fill="#101010" fill-rule="evenodd" />
    <g id="Group" transform="translate(9 6)">
      <path id="Vector" d="M5.4637 0L3.63962 1.12372L0 3.3659L0 8.96582L1.82123 10.5L8.19554 11.1889L8.19554 12.1944L1.99722 12.5L0 14.6658L0 20L5.00839 22.5L6.37431 23" fill="none" stroke-width="4" stroke="#FFFFFF" transform="translate(39 12)" />
      <path id="Vector" d="M0 33.7629L23.4941 48L47.5 33.7628L47.5 12.616L23.4941 0L0 12.616L0 33.7629Z" fill="none" stroke-width="5" stroke="#FFFFFF" transform="translate(0 0)" />
      <path id="Vector" d="M0 9.18793L9.99386 9.21658L9.97361 0L10.0154 19.0284" fill="none" stroke-width="5" stroke="#FFFFFF" transform="translate(0 15)" />
      <path id="Vector" d="M6.23579 17.4666L6.23569 0L0 0L12.7486 0" fill="none" stroke-width="4" stroke="#FFFFFF" transform="translate(22.555 16)" />
      <path id="Vector" d="M0 0L7.72218 0" fill="none" stroke-width="5" stroke="#FFFFFF" transform="translate(14.71 23)" />
      <path id="Rectangle" d="M1.81052 0L5.47441 0Q5.56304 0 5.64997 0.0172914Q5.7369 0.0345827 5.81878 0.068501Q5.90067 0.102419 5.97437 0.151661Q6.04806 0.200903 6.11073 0.263575Q6.17341 0.326248 6.22265 0.399943Q6.27189 0.473639 6.30581 0.555525Q6.33973 0.63741 6.35702 0.72434Q6.37431 0.81127 6.37431 0.899902L6.37431 6.6001C6.37431 7.0971 6.01991 7.70142 5.53996 7.83048C5.19376 7.92357 4.74692 8 4.21289 8C3.43541 8 2.47311 7.83801 1.78829 7.69843C1.3013 7.59918 0.735161 7.13646 0.565182 6.66943C0.307549 5.96156 0 4.88835 0 3.79869C0 2.69299 0.316669 1.57035 0.576527 0.83527C0.742176 0.366686 1.31351 0 1.81052 0Z" fill="#FFFFFF" fill-rule="evenodd" transform="translate(40.207 26)" />
      <path id="Rectangle" d="M1.35521 0L5.0191 0Q5.10773 0 5.19466 0.0172914Q5.28159 0.0345827 5.36348 0.068501Q5.44536 0.102419 5.51906 0.151661Q5.59275 0.200903 5.65543 0.263575Q5.7181 0.326248 5.76734 0.399943Q5.81658 0.473639 5.8505 0.555525Q5.88442 0.63741 5.90171 0.72434Q5.919 0.81127 5.919 0.899902L5.919 7.1001Q5.919 7.18873 5.90171 7.27566Q5.88442 7.36259 5.8505 7.44447Q5.81658 7.52636 5.76734 7.60006Q5.7181 7.67375 5.65543 7.73642Q5.59275 7.7991 5.51906 7.84834Q5.44536 7.89758 5.36348 7.9315Q5.28159 7.96542 5.19466 7.98271Q5.10773 8 5.0191 8L1.35521 8C0.858208 8 0.36721 7.60665 0.283836 7.11669C0.154766 6.35821 0 5.2056 0 4.03955C0 2.85904 0.15863 1.66476 0.288624 0.884246C0.370277 0.393997 0.858208 0 1.35521 0Z" fill="#FFFFFF" fill-rule="evenodd" transform="translate(40.207 14)" />
      <path id="Rectangle" d="M4 0C4.55236 0 5 0.447639 5 1L5 6C5 6.55236 4.55236 7 4 7L1 7C0.447639 7 0 6.55236 0 6L0 1C0 0.447639 0.447639 0 1 0L4 0Z" fill="#000000" transform="matrix(1 0 0 1 41 26)" />
      <path id="Rectangle" d="M4 0C4.55236 0 5 0.44764 5 1L5 5C5 5.55236 4.55236 6 4 6L1 6C0.447639 6 0 5.55236 0 5L0 1C0 0.44764 0.447639 0 1 0L4 0Z" fill="#000000" transform="matrix(1 0 0 1 41 15)" />
      <path id="Triangle" d="M3.64249 3.00002L0 6.00004L0 0L3.64249 3.00002Z" fill="#101010" fill-rule="evenodd" transform="translate(36.285 21)" />
      <path id="Triangle" d="M0 3.00001L3.64248 0L3.64248 6.00002L0 3.00001Z" fill="#101010" fill-rule="evenodd" transform="translate(47.072 21)" />
    </g>
  </g>
</svg>