<svg width="1036" height="1230" viewBox="0 0 1036 1230" fill="none" xmlns="http://www.w3.org/2000/svg">
<path fill-rule="evenodd" clip-rule="evenodd" d="M724.303 501.798L718.713 495.846L711.589 500.745L718.043 506.571L724.303 501.798ZM718.923 499.221L720.839 501.511L717.875 503.871L715.1 501.591L718.923 499.221Z" fill="#D9D9D9"/>
<path fill-rule="evenodd" clip-rule="evenodd" d="M712.735 507.492L709.166 502.661L703.51 505.815L707.723 510.613L712.735 507.492ZM709.02 505.193L710.221 507.035L707.84 508.587L706.008 506.692L709.02 505.193Z" fill="#D9D9D9"/>
<path fill-rule="evenodd" clip-rule="evenodd" d="M768.411 396.988L775.87 394.692L771.065 385.289L763.652 388.482L768.411 396.988ZM771.977 393.143L769.134 393.801L766.766 389.722L769.696 388.232L771.977 393.143Z" fill="#D9D9D9"/>
<path fill-rule="evenodd" clip-rule="evenodd" d="M732.196 482.282L740.594 490.97L749.553 480.352L741.24 472.696L732.196 482.282ZM740.499 486.227L736.467 482.354L741.251 476.407L745.753 480.112L740.499 486.227Z" fill="#D9D9D9"/>
<path fill-rule="evenodd" clip-rule="evenodd" d="M736.057 492.478L729.138 484.618L720.928 493.302L727.817 500.272L736.057 492.478ZM729.023 488.693L732.357 492.211L727.962 497.086L724.213 493.69L729.023 488.693Z" fill="#D9D9D9"/>
<path fill-rule="evenodd" clip-rule="evenodd" d="M763.109 435.607L776.504 439.716L780.985 422.8L768.901 419.599L763.109 435.607ZM773.445 434.768L767.861 433.289L770.347 423.905L775.931 425.384L773.445 434.768Z" fill="#D9D9D9"/>
<path fill-rule="evenodd" clip-rule="evenodd" d="M777.796 398.819L767.697 398.84L769.098 419.119L781.697 418.272L777.796 398.819ZM771.67 402.845L774.986 402.622L777.42 412.974L772.778 413.286L771.67 402.845Z" fill="#D9D9D9"/>
<path fill-rule="evenodd" clip-rule="evenodd" d="M774.907 446.187L762.815 439.11L754.568 454.545L765.593 460.436L774.907 446.187ZM764.656 444.629L769.75 447.351L765.175 455.913L760.081 453.191L764.656 444.629Z" fill="#D9D9D9"/>
<path fill-rule="evenodd" clip-rule="evenodd" d="M762.487 465.098L752.743 457.284L743.158 469.667L752.123 476.301L762.487 465.098ZM753.581 462.356L757.724 465.422L752.407 472.291L748.265 469.226L753.581 462.356Z" fill="#D9D9D9"/>
<path fill-rule="evenodd" clip-rule="evenodd" d="M309.224 501.798L315.192 495.846L322.797 500.745L315.908 506.571L309.224 501.798ZM314.968 499.221L312.922 501.511L316.087 503.871L319.049 501.591L314.968 499.221Z" fill="#D9D9D9"/>
<path fill-rule="evenodd" clip-rule="evenodd" d="M321.574 507.492L325.384 502.661L331.422 505.815L326.925 510.613L321.574 507.492ZM325.54 505.193L324.257 507.035L326.8 508.587L328.755 506.692L325.54 505.193Z" fill="#D9D9D9"/>
<path fill-rule="evenodd" clip-rule="evenodd" d="M262.138 396.988L254.176 394.692L259.305 385.289L267.218 388.482L262.138 396.988ZM258.331 393.143L261.366 393.801L263.894 389.722L260.767 388.232L258.331 393.143Z" fill="#D9D9D9"/>
<path fill-rule="evenodd" clip-rule="evenodd" d="M300.799 482.282L291.833 490.97L282.269 480.352L291.144 472.696L300.799 482.282ZM291.935 486.227L296.239 482.354L291.133 476.407L286.326 480.112L291.935 486.227Z" fill="#D9D9D9"/>
<path fill-rule="evenodd" clip-rule="evenodd" d="M296.677 492.478L304.063 484.618L312.827 493.302L305.473 500.272L296.677 492.478ZM304.186 488.693L300.627 492.211L305.318 497.086L309.321 493.69L304.186 488.693Z" fill="#D9D9D9"/>
<path fill-rule="evenodd" clip-rule="evenodd" d="M220.912 539.063L213.393 542.872L207.681 535.856L216.037 532.453L220.912 539.063ZM214.652 539.732L217.307 538.189L215.03 534.965L211.507 536.214L214.652 539.732Z" fill="#D9D9D9"/>
<path fill-rule="evenodd" clip-rule="evenodd" d="M222.713 551.916L218.039 547.915L221.434 542.009L226.047 546.695L222.713 551.916ZM220.575 547.861L222.364 549.216L224.018 546.738L222.203 544.709L220.575 547.861Z" fill="#D9D9D9"/>
<path fill-rule="evenodd" clip-rule="evenodd" d="M212.659 526.814L204.585 533.965L196.652 524.516L204.613 518.248L212.659 526.814ZM204.836 529.896L208.702 526.718L204.476 521.434L200.18 524.45L204.836 529.896Z" fill="#D9D9D9"/>
<path fill-rule="evenodd" clip-rule="evenodd" d="M267.798 435.607L253.499 439.716L248.715 422.8L261.615 419.599L267.798 435.607ZM256.765 434.768L262.725 433.289L260.071 423.905L254.111 425.384L256.765 434.768Z" fill="#D9D9D9"/>
<path fill-rule="evenodd" clip-rule="evenodd" d="M252.119 398.819L262.9 398.84L261.405 419.119L247.955 418.272L252.119 398.819ZM258.659 402.845L255.119 402.622L252.521 412.974L257.476 413.286L258.659 402.845Z" fill="#D9D9D9"/>
<path fill-rule="evenodd" clip-rule="evenodd" d="M255.203 446.187L268.112 439.11L276.916 454.545L265.147 460.436L255.203 446.187ZM266.147 444.629L260.709 447.351L265.593 455.913L271.031 453.191L266.147 444.629Z" fill="#D9D9D9"/>
<path fill-rule="evenodd" clip-rule="evenodd" d="M268.463 465.098L278.865 457.284L289.096 469.667L279.526 476.301L268.463 465.098ZM277.969 462.356L273.547 465.422L279.223 472.291L283.645 469.226L277.969 462.356Z" fill="#D9D9D9"/>
<path fill-rule="evenodd" clip-rule="evenodd" d="M462.079 700.781L453.266 696.264L457.182 687.849L466.088 693.286L462.079 700.781ZM457.421 695.762L460.745 697.257L462.764 693.687L459.208 691.302L457.421 695.762Z" fill="#D9D9D9"/>
<path fill-rule="evenodd" clip-rule="evenodd" d="M465.695 687.597L458.817 684.933L461.035 678.409L468.055 681.746L465.695 687.597ZM461.848 684.243L464.425 685.093L465.631 682.298L462.81 680.807L461.848 684.243Z" fill="#D9D9D9"/>
<path fill-rule="evenodd" clip-rule="evenodd" d="M343.178 769.505L344.93 777.55L331.842 778.425L331.103 769.922L343.178 769.505ZM340.996 774.881L340.09 771.935L334.25 772.057L334.292 775.544L340.996 774.881Z" fill="#D9D9D9"/>
<path fill-rule="evenodd" clip-rule="evenodd" d="M192.892 709.982L196.136 717.55L183.45 720.888L181.114 712.679L192.892 709.982ZM191.768 715.674L190.319 712.954L184.608 714.18L185.31 717.596L191.768 715.674Z" fill="#D9D9D9"/>
<path fill-rule="evenodd" clip-rule="evenodd" d="M440.646 713.105L453.578 719.944L443.245 731.477L431.589 724.504L440.646 713.105ZM447.796 720.856L441.95 717.509L436.095 723.725L441.872 727.595L447.796 720.856Z" fill="#D9D9D9"/>
<path fill-rule="evenodd" clip-rule="evenodd" d="M381.267 655.887L399.181 651.764L400.923 670.162L384.729 672.719L381.267 655.887ZM394.858 657.698L387.533 659.898L388.24 667.365L395.706 666.658L394.858 657.698Z" fill="#D9D9D9"/>
<path fill-rule="evenodd" clip-rule="evenodd" d="M248.172 702.96L231.28 710.211L226.287 692.418L241.766 687.014L248.172 702.96ZM234.477 703.601L241.292 700.13L239.266 692.909L232.045 694.936L234.477 703.601Z" fill="#D9D9D9"/>
<path fill-rule="evenodd" clip-rule="evenodd" d="M636.724 657.601L651.423 655.115L651.677 670.361L638.462 671.644L636.724 657.601ZM647.567 659.783L641.524 661.224L641.627 667.411L647.691 667.208L647.567 659.783Z" fill="#D9D9D9"/>
<path fill-rule="evenodd" clip-rule="evenodd" d="M454.116 714.928L442.61 709.443L450.809 699.098L461.228 704.742L454.116 714.928ZM447.522 708.456L452.739 711.157L457.403 705.571L452.215 702.415L447.522 708.456Z" fill="#D9D9D9"/>
<path fill-rule="evenodd" clip-rule="evenodd" d="M703.493 833.042L700.482 842.477L691.538 839.992L695.443 830.316L703.493 833.042ZM699.306 838.46L700.236 834.936L696.384 833.529L694.613 837.428L699.306 838.46Z" fill="#D9D9D9"/>
<path fill-rule="evenodd" clip-rule="evenodd" d="M719.41 853.019L724.178 839.189L737.163 847.624L732.068 860.214L719.41 853.019ZM725.969 844.761L723.561 851.053L730.605 855.881L733.539 849.578L725.969 844.761Z" fill="#D9D9D9"/>
<path fill-rule="evenodd" clip-rule="evenodd" d="M719.405 838.357L716.124 850.674L704.45 844.512L708.087 833.235L719.405 838.357ZM714.252 846.026L715.95 840.402L709.603 836.842L707.452 842.521L714.252 846.026Z" fill="#D9D9D9"/>
<path fill-rule="evenodd" clip-rule="evenodd" d="M735.936 860.887L739.919 848.778L751.219 855.6L746.941 866.65L735.936 860.887ZM741.52 853.525L739.503 859.043L745.635 862.962L748.108 857.415L741.52 853.525Z" fill="#D9D9D9"/>
<path fill-rule="evenodd" clip-rule="evenodd" d="M335.067 835.205L338.639 844.543L348.396 841.785L343.836 832.232L335.067 835.205ZM339.82 840.492L338.699 836.998L342.892 835.473L344.947 839.316L339.82 840.492Z" fill="#D9D9D9"/>
<path fill-rule="evenodd" clip-rule="evenodd" d="M319.411 856.051L315.748 841.723L300.622 848.511L304.782 861.647L319.411 856.051ZM313.17 847.04L315.097 853.588L306.864 857.522L304.363 850.897L313.17 847.04Z" fill="#D9D9D9"/>
<path fill-rule="evenodd" clip-rule="evenodd" d="M319.447 841.613L323.397 853.824L336.051 847.306L331.74 836.145L319.447 841.613ZM325.323 849.121L323.301 843.552L330.175 839.797L332.697 845.408L325.323 849.121Z" fill="#D9D9D9"/>
<path fill-rule="evenodd" clip-rule="evenodd" d="M300.485 863.638L295.77 851.657L283.544 858.824L288.553 869.738L300.485 863.638ZM294.143 856.451L296.514 861.905L289.886 866.01L287.014 860.542L294.143 856.451Z" fill="#D9D9D9"/>
<path fill-rule="evenodd" clip-rule="evenodd" d="M392.91 756.029L401.708 769.013L382.457 777.253L375.135 765.432L392.91 756.029ZM394.833 766.902L391.45 761.44L380.771 766.011L384.154 771.473L394.833 766.902Z" fill="#D9D9D9"/>
<path fill-rule="evenodd" clip-rule="evenodd" d="M350.204 779.623L347.355 769.168L372.358 766.299L374.917 779.516L350.204 779.623ZM353.345 772.426L354.018 775.905L367.271 776.219L366.328 771.349L353.345 772.426Z" fill="#D9D9D9"/>
<path fill-rule="evenodd" clip-rule="evenodd" d="M202.391 716.314L197.017 706.905L220.506 697.87L226.291 710.027L202.391 716.314ZM203.631 708.561L205.154 711.76L218.063 708.748L215.932 704.269L203.631 708.561Z" fill="#D9D9D9"/>
<path fill-rule="evenodd" clip-rule="evenodd" d="M832.688 713.483L829.799 720.67L819.846 717.606L823.707 710.332L832.688 713.483ZM828.324 717.314L829.189 714.606L824.887 713.017L823.114 715.924L828.324 717.314Z" fill="#D9D9D9"/>
<path fill-rule="evenodd" clip-rule="evenodd" d="M788.435 706.255L773.508 695.527L786.173 682.068L798.788 692.539L788.435 706.255ZM780.819 694.854L787.309 698.902L792.449 693.439L786.987 688.3L780.819 694.854Z" fill="#D9D9D9"/>
<path fill-rule="evenodd" clip-rule="evenodd" d="M820.071 707.581L815.733 715.371L794.385 708.587L800.684 699.099L820.071 707.581ZM813.096 711.178L814.754 708.681L804.591 703.891L802.27 707.386L813.096 711.178Z" fill="#D9D9D9"/>
<path fill-rule="evenodd" clip-rule="evenodd" d="M408.953 765.738L396.925 754.732L413.306 742.91L423.591 753.064L408.953 765.738ZM404.145 755.461L408.898 760.153L417.985 753.595L413.232 748.903L404.145 755.461Z" fill="#D9D9D9"/>
<path fill-rule="evenodd" clip-rule="evenodd" d="M428.417 748.108L416.163 739.69L428.46 727.135L439.06 734.999L428.417 748.108ZM422.556 739.477L427.454 743.111L434.276 736.146L429.377 732.513L422.556 739.477Z" fill="#D9D9D9"/>
<path fill-rule="evenodd" clip-rule="evenodd" d="M136.247 469.726L132.565 478.92L123.824 475.799L128.413 466.428L136.247 469.726ZM131.681 474.829L132.862 471.381L129.121 469.7L127.075 473.462L131.681 474.829Z" fill="#D9D9D9"/>
<path fill-rule="evenodd" clip-rule="evenodd" d="M122.785 467.346L120.769 474.441L114.068 472.836L116.741 465.537L122.785 467.346ZM119.801 471.487L120.41 468.842L117.515 467.9L116.292 470.847L119.801 471.487Z" fill="#D9D9D9"/>
<path fill-rule="evenodd" clip-rule="evenodd" d="M150.501 489.927L156.115 476.419L168.554 485.641L162.689 497.891L150.501 489.927ZM157.557 482.091L154.766 488.222L161.497 493.477L164.816 487.366L157.557 482.091Z" fill="#D9D9D9"/>
<path fill-rule="evenodd" clip-rule="evenodd" d="M151.071 476.347L146.674 488.311L135.614 481.104L140.27 470.208L151.071 476.347ZM145.236 483.512L147.443 478.067L141.449 473.939L138.786 479.397L145.236 483.512Z" fill="#D9D9D9"/>
<path fill-rule="evenodd" clip-rule="evenodd" d="M200.046 510.586L193.701 521.641L184.01 512.678L190.431 502.719L200.046 510.586ZM193.091 516.668L196.181 511.672L190.966 506.596L187.424 511.528L193.091 516.668Z" fill="#D9D9D9"/>
<path fill-rule="evenodd" clip-rule="evenodd" d="M186.486 498.866L179.237 511.847L165.598 500.764L172.448 489.481L186.486 498.866ZM178.434 505.501L181.599 500.287L174.033 494.139L170.868 499.353L178.434 505.501Z" fill="#D9D9D9"/>
<path fill-rule="evenodd" clip-rule="evenodd" d="M833.153 524.454L840.945 528.263L846.864 521.248L838.205 517.845L833.153 524.454ZM839.64 525.124L836.889 523.581L839.248 520.356L842.899 521.606L839.64 525.124Z" fill="#D9D9D9"/>
<path fill-rule="evenodd" clip-rule="evenodd" d="M831.287 537.307L836.13 533.306L832.612 527.4L827.832 532.087L831.287 537.307ZM833.502 533.253L831.648 534.608L829.935 532.13L831.815 530.101L833.502 533.253Z" fill="#D9D9D9"/>
<path fill-rule="evenodd" clip-rule="evenodd" d="M841.705 512.206L850.072 519.357L858.293 509.908L850.043 503.64L841.705 512.206ZM849.813 515.288L845.806 512.11L850.186 506.826L854.638 509.842L849.813 515.288Z" fill="#D9D9D9"/>
<path fill-rule="evenodd" clip-rule="evenodd" d="M871.785 488.414L875.6 497.607L884.659 494.486L879.903 485.115L871.785 488.414ZM876.517 493.516L875.292 490.068L879.17 488.388L881.29 492.15L876.517 493.516Z" fill="#D9D9D9"/>
<path fill-rule="evenodd" clip-rule="evenodd" d="M888.417 484.346L890.506 491.441L897.451 489.836L894.68 482.537L888.417 484.346ZM891.509 488.487L890.878 485.842L893.878 484.9L895.146 487.847L891.509 488.487Z" fill="#D9D9D9"/>
<path fill-rule="evenodd" clip-rule="evenodd" d="M854.776 495.978L861.352 507.033L871.394 498.069L864.74 488.111L854.776 495.978ZM861.984 502.06L858.782 497.064L864.186 491.987L867.856 496.92L861.984 502.06Z" fill="#D9D9D9"/>
<path fill-rule="evenodd" clip-rule="evenodd" d="M859.489 423.663L853.035 422.166L850.589 429.222L857.556 430.2L859.489 423.663ZM854.736 424.485L857.064 425.178L856.195 428.344L853.304 428.085L854.736 424.485Z" fill="#D9D9D9"/>
<path fill-rule="evenodd" clip-rule="evenodd" d="M855.862 435.856L851.226 433.329L847.72 440.352L852.87 442.412L855.862 435.856ZM852.006 436.01L853.643 437.081L852.246 440.267L850.075 439.566L852.006 436.01Z" fill="#D9D9D9"/>
<path fill-rule="evenodd" clip-rule="evenodd" d="M853.885 417.031L861.556 421.205L865.069 411.665L857.697 408.197L853.885 417.031ZM860.378 417.89L856.766 416.096L858.576 410.806L862.465 412.374L860.378 417.89Z" fill="#D9D9D9"/>
<path fill-rule="evenodd" clip-rule="evenodd" d="M873.711 396.61L881.415 391.293L877.687 384.921L869.927 391.026L873.711 396.61ZM877.706 391.594L874.794 393.425L872.894 390.785L875.987 388.167L877.706 391.594Z" fill="#D9D9D9"/>
<path fill-rule="evenodd" clip-rule="evenodd" d="M888.071 387.825L886.988 382.196L881.795 384.549L883.365 390.249L888.071 387.825ZM886.066 384.812L886.361 386.932L884.102 388.156L883.359 385.877L886.066 384.812Z" fill="#D9D9D9"/>
<path fill-rule="evenodd" clip-rule="evenodd" d="M865.189 394.082L857.807 403.879L867.043 408.918L873.538 399.476L865.189 394.082ZM861.887 402.504L865.175 397.882L870.345 400.496L867.207 405.489L861.887 402.504Z" fill="#D9D9D9"/>
<path fill-rule="evenodd" clip-rule="evenodd" d="M185.333 441.945L191.052 440.129L193.641 447.052L187.432 448.375L185.333 441.945ZM189.651 442.529L187.597 443.337L188.553 446.455L191.137 446.053L189.651 442.529Z" fill="#D9D9D9"/>
<path fill-rule="evenodd" clip-rule="evenodd" d="M190.173 435.462L183.204 439.529L180.187 429.942L186.877 426.576L190.173 435.462ZM184.315 436.231L187.594 434.486L186.045 429.173L182.521 430.686L184.315 436.231Z" fill="#D9D9D9"/>
<path fill-rule="evenodd" clip-rule="evenodd" d="M172.546 401.355L177.745 408.38L172.761 413.578L167.73 405.783L172.546 401.355ZM174.619 407.169L172.604 404.685L170.231 406.752L172.185 410.036L174.619 407.169Z" fill="#D9D9D9"/>
<path fill-rule="evenodd" clip-rule="evenodd" d="M162.967 399.151L166.18 394.428L169.465 398.502L165.824 403.109L162.967 399.151ZM165.855 397.153L164.738 398.974L166.084 400.929L167.635 399.13L165.855 397.153Z" fill="#D9D9D9"/>
<path fill-rule="evenodd" clip-rule="evenodd" d="M192.33 456.667L189.717 451.588L194.866 450.649L197.172 456.05L192.33 456.667ZM191.956 453.176L193.021 455.028L195.381 454.78L194.543 452.557L191.956 453.176Z" fill="#D9D9D9"/>
<path fill-rule="evenodd" clip-rule="evenodd" d="M180.661 412.649L186.312 422.863L178.299 427.358L173.371 417.55L180.661 412.649ZM182.969 421.252L180.466 416.445L176.757 418.359L179.114 423.529L182.969 421.252Z" fill="#D9D9D9"/>
<path fill-rule="evenodd" clip-rule="evenodd" d="M352.881 838.034L348.567 831.215L358.041 827.858L361.643 834.422L352.881 838.034ZM351.903 832.207L353.764 835.422L359.019 833.685L357.38 830.216L351.903 832.207Z" fill="#D9D9D9"/>
<path fill-rule="evenodd" clip-rule="evenodd" d="M386.337 819.2L379.502 824.647L374.129 819.851L381.74 814.546L386.337 819.2ZM380.601 821.479L383.01 819.377L380.861 817.08L377.649 819.149L380.601 821.479Z" fill="#D9D9D9"/>
<path fill-rule="evenodd" clip-rule="evenodd" d="M388.197 809.549L393.032 812.591L389.078 816.02L384.343 812.546L388.197 809.549ZM390.297 812.364L388.437 811.312L386.532 812.727L388.385 814.213L390.297 812.364Z" fill="#D9D9D9"/>
<path fill-rule="evenodd" clip-rule="evenodd" d="M375.34 827.713L365.334 833.725L360.556 825.877L370.181 820.603L375.34 827.713ZM366.824 830.327L371.539 827.654L369.494 824.016L364.412 826.556L366.824 830.327Z" fill="#D9D9D9"/>
<path fill-rule="evenodd" clip-rule="evenodd" d="M686.709 837.034L691.391 830.215L681.109 826.858L677.199 833.422L686.709 837.034ZM687.77 831.207L685.751 834.422L680.048 832.685L681.826 829.216L687.77 831.207Z" fill="#D9D9D9"/>
<path fill-rule="evenodd" clip-rule="evenodd" d="M650.399 818.2L657.817 823.647L663.648 818.851L655.388 813.546L650.399 818.2ZM656.624 820.479L654.009 818.377L656.342 816.08L659.828 818.149L656.624 820.479Z" fill="#D9D9D9"/>
<path fill-rule="evenodd" clip-rule="evenodd" d="M648.38 808.549L643.133 811.591L647.424 815.02L652.563 811.546L648.38 808.549ZM646.101 811.364L648.12 810.312L650.188 811.727L648.176 813.213L646.101 811.364Z" fill="#D9D9D9"/>
<path fill-rule="evenodd" clip-rule="evenodd" d="M662.334 826.713L673.194 832.725L678.38 824.877L667.933 819.603L662.334 826.713ZM671.576 829.327L666.459 826.654L668.679 823.016L674.195 825.556L671.576 829.327Z" fill="#D9D9D9"/>
<path fill-rule="evenodd" clip-rule="evenodd" d="M838.96 639.756L840.997 649.447L831.992 651.7L830.613 641.357L838.96 639.756ZM837.992 646.534L837.062 643.01L833.017 643.687L833.401 647.952L837.992 646.534Z" fill="#D9D9D9"/>
<path fill-rule="evenodd" clip-rule="evenodd" d="M826.332 651.51L827.039 643.268L816.44 645.423L816.279 653.062L826.332 651.51ZM824.38 645.918L824.21 649.711L818.392 651.014L818.227 647.12L824.38 645.918Z" fill="#D9D9D9"/>
<path fill-rule="evenodd" clip-rule="evenodd" d="M785.457 653.047L794.597 654.124L797.302 647.075L787.499 646.537L785.457 653.047ZM791.996 651.957L788.684 651.42L789.58 648.27L793.633 648.35L791.996 651.957Z" fill="#D9D9D9"/>
<path fill-rule="evenodd" clip-rule="evenodd" d="M778.939 645.649L775.876 650.884L781.3 651.749L784.055 646.192L778.939 645.649ZM778.346 649.222L779.582 647.311L782.079 647.521L781.063 649.806L778.346 649.222Z" fill="#D9D9D9"/>
<path fill-rule="evenodd" clip-rule="evenodd" d="M800.039 654.562L812.451 654.432L813.089 645.047L801.4 645.615L800.039 654.562ZM809.367 652.274L803.597 652.475L803.733 648.215L809.784 647.702L809.367 652.274Z" fill="#D9D9D9"/>
<path fill-rule="evenodd" clip-rule="evenodd" d="M180.93 636.598L178.89 646.29L187.91 648.542L189.292 638.199L180.93 636.598ZM181.9 643.377L182.831 639.853L186.884 640.53L186.499 644.795L181.9 643.377Z" fill="#D9D9D9"/>
<path fill-rule="evenodd" clip-rule="evenodd" d="M193.58 648.353L192.872 640.111L203.49 642.265L203.65 649.904L193.58 648.353ZM195.536 642.761L195.705 646.554L201.534 647.857L201.699 643.963L195.536 642.761Z" fill="#D9D9D9"/>
<path fill-rule="evenodd" clip-rule="evenodd" d="M234.526 649.89L225.37 650.967L222.66 643.918L232.48 643.38L234.526 649.89ZM227.975 648.8L231.293 648.263L230.396 645.113L226.335 645.193L227.975 648.8Z" fill="#D9D9D9"/>
<path fill-rule="evenodd" clip-rule="evenodd" d="M241.055 642.492L244.124 647.727L238.69 648.592L235.93 643.034L241.055 642.492ZM241.649 646.065L240.411 644.154L237.909 644.364L238.928 646.649L241.649 646.065Z" fill="#D9D9D9"/>
<path fill-rule="evenodd" clip-rule="evenodd" d="M219.919 651.405L207.485 651.275L206.846 641.89L218.555 642.458L219.919 651.405ZM210.575 649.117L216.354 649.318L216.218 645.058L210.157 644.545L210.575 649.117Z" fill="#D9D9D9"/>
<path fill-rule="evenodd" clip-rule="evenodd" d="M665.478 919.03L674.75 915.549L671.808 906.729L662.34 911.115L665.478 919.03ZM670.676 914.572L667.203 915.678L665.599 911.896L669.404 909.931L670.676 914.572Z" fill="#D9D9D9"/>
<path fill-rule="evenodd" clip-rule="evenodd" d="M668.605 902.047L662.031 907.069L658.149 896.954L664.508 892.718L668.605 902.047ZM662.837 903.399L665.946 901.22L663.917 895.603L660.543 897.554L662.837 903.399Z" fill="#D9D9D9"/>
<path fill-rule="evenodd" clip-rule="evenodd" d="M647.923 866.675L653.746 873.822L649.253 879.892L643.528 871.896L647.923 866.675ZM650.519 872.787L648.285 870.276L646.109 872.723L648.356 876.107L650.519 872.787Z" fill="#D9D9D9"/>
<path fill-rule="evenodd" clip-rule="evenodd" d="M638.176 865.137L640.946 859.738L644.592 863.858L641.385 869.17L638.176 865.137ZM640.871 862.718L639.924 864.789L641.444 866.786L642.826 864.701L640.871 862.718Z" fill="#D9D9D9"/>
<path fill-rule="evenodd" clip-rule="evenodd" d="M657.041 878.186L663.606 888.746L656.03 894.323L650.225 884.139L657.041 878.186ZM660.127 887.298L657.194 882.314L653.673 884.715L656.494 890.104L660.127 887.298Z" fill="#D9D9D9"/>
<path fill-rule="evenodd" clip-rule="evenodd" d="M370.965 921.03L362.835 917.549L365.414 908.729L373.717 913.115L370.965 921.03ZM366.407 916.572L369.453 917.678L370.859 913.896L367.522 911.931L366.407 916.572Z" fill="#D9D9D9"/>
<path fill-rule="evenodd" clip-rule="evenodd" d="M368.224 904.047L373.988 909.069L377.392 898.954L371.816 894.718L368.224 904.047ZM373.282 905.399L370.555 903.22L372.334 897.603L375.293 899.554L373.282 905.399Z" fill="#D9D9D9"/>
<path fill-rule="evenodd" clip-rule="evenodd" d="M386.36 868.675L381.254 875.822L385.194 881.892L390.214 873.896L386.36 868.675ZM384.083 874.787L386.042 872.276L387.951 874.723L385.98 878.107L384.083 874.787Z" fill="#D9D9D9"/>
<path fill-rule="evenodd" clip-rule="evenodd" d="M394.908 867.137L392.478 861.738L389.281 865.858L392.094 871.17L394.908 867.137ZM392.544 864.718L393.374 866.789L392.041 868.786L390.83 866.701L392.544 864.718Z" fill="#D9D9D9"/>
<path fill-rule="evenodd" clip-rule="evenodd" d="M378.364 880.186L372.607 890.746L379.25 896.323L384.342 886.139L378.364 880.186ZM375.658 889.298L378.23 884.314L381.318 886.715L378.844 892.104L375.658 889.298Z" fill="#D9D9D9"/>
<path fill-rule="evenodd" clip-rule="evenodd" d="M567.551 701.781L577.133 697.264L572.875 688.849L563.193 694.286L567.551 701.781ZM572.616 696.762L569.002 698.257L566.807 694.687L570.673 692.302L572.616 696.762Z" fill="#D9D9D9"/>
<path fill-rule="evenodd" clip-rule="evenodd" d="M563.621 688.597L571.098 685.933L568.687 679.409L561.055 682.746L563.621 688.597ZM567.803 685.243L565.001 686.093L563.691 683.298L566.757 681.807L567.803 685.243Z" fill="#D9D9D9"/>
<path fill-rule="evenodd" clip-rule="evenodd" d="M696.811 770.505L694.907 778.55L709.135 779.425L709.939 770.922L696.811 770.505ZM699.183 775.881L700.169 772.935L706.518 773.057L706.472 776.544L699.183 775.881Z" fill="#D9D9D9"/>
<path fill-rule="evenodd" clip-rule="evenodd" d="M590.852 714.105L576.794 720.944L588.027 732.477L600.698 725.504L590.852 714.105ZM583.079 721.856L589.435 718.509L595.799 724.725L589.519 728.595L583.079 721.856Z" fill="#D9D9D9"/>
<path fill-rule="evenodd" clip-rule="evenodd" d="M576.208 715.928L588.717 710.443L579.803 700.098L568.477 705.742L576.208 715.928ZM583.377 709.456L577.705 712.157L572.634 706.571L578.275 703.415L583.377 709.456Z" fill="#D9D9D9"/>
<path fill-rule="evenodd" clip-rule="evenodd" d="M642.747 757.029L633.183 770.013L654.11 778.253L662.071 766.432L642.747 757.029ZM640.656 767.902L644.335 762.44L655.944 767.011L652.266 772.473L640.656 767.902Z" fill="#D9D9D9"/>
<path fill-rule="evenodd" clip-rule="evenodd" d="M689.174 780.623L692.27 770.168L665.089 767.299L662.307 780.516L689.174 780.623ZM685.759 773.426L685.027 776.905L670.619 777.219L671.644 772.349L685.759 773.426Z" fill="#D9D9D9"/>
<path fill-rule="evenodd" clip-rule="evenodd" d="M625.306 766.738L638.382 755.732L620.574 743.91L609.392 754.064L625.306 766.738ZM630.533 756.461L625.366 761.153L615.487 754.595L620.654 749.903L630.533 756.461Z" fill="#D9D9D9"/>
<path fill-rule="evenodd" clip-rule="evenodd" d="M712.048 645.848L700.996 669.013L734.387 679.123L743.331 658.16L712.048 645.848ZM711.651 664.24L715.784 654.553L734.307 660.162L730.174 669.848L711.651 664.24Z" fill="#D9D9D9"/>
<path fill-rule="evenodd" clip-rule="evenodd" d="M656.566 651.669L655.265 669.665L698.359 668.441L698.247 645.938L656.566 651.669ZM664.268 662.837L664.239 656.916L686.465 653.227L686.507 661.518L664.268 662.837Z" fill="#D9D9D9"/>
<path fill-rule="evenodd" clip-rule="evenodd" d="M756.402 661.227L741.773 679.966L768.177 693.479L780.508 676.374L756.402 661.227ZM751.975 677.275L757.673 669.371L772.321 676.867L766.623 684.77L751.975 677.275Z" fill="#D9D9D9"/>
<path fill-rule="evenodd" clip-rule="evenodd" d="M295.357 684.938L283.743 656.964L319.634 647.336L329.01 672.58L295.357 684.938ZM295.115 663.293L299.447 674.958L319.358 669.617L315.025 657.952L295.115 663.293Z" fill="#D9D9D9"/>
<path fill-rule="evenodd" clip-rule="evenodd" d="M376.898 653.614L378.871 674.751L334.493 672.118L333.815 645.735L376.898 653.614ZM369.368 666.495L369.189 659.552L346.193 654.609L346.443 664.329L369.368 666.495Z" fill="#D9D9D9"/>
<path fill-rule="evenodd" clip-rule="evenodd" d="M273.402 660.279L291.208 685.485L259.292 702.974L244.277 679.985L273.402 660.279ZM278.839 681.714L271.901 671.091L254.196 680.793L261.134 691.416L278.839 681.714Z" fill="#D9D9D9"/>
<path fill-rule="evenodd" clip-rule="evenodd" d="M604.147 749.108L617.468 740.69L604.1 728.135L592.576 735.999L604.147 749.108ZM610.518 740.477L605.193 744.111L597.777 737.146L603.102 733.513L610.518 740.477Z" fill="#D9D9D9"/>
<path fill-rule="evenodd" clip-rule="evenodd" d="M349.423 343.624L341.016 337.097L333.288 347.156L342.744 353.152L349.423 343.624ZM342.085 341.982L345.027 344.587L341.889 349.245L337.877 346.997L342.085 341.982Z" fill="#D9D9D9"/>
<path fill-rule="evenodd" clip-rule="evenodd" d="M335.858 358.29L329.673 349.628L319.388 357.051L326.729 365.505L335.858 358.29ZM329.298 354.614L331.371 357.952L327.029 361.516L323.83 358.214L329.298 354.614Z" fill="#D9D9D9"/>
<path fill-rule="evenodd" clip-rule="evenodd" d="M269.16 294.878L279.306 298.093L283.076 285.982L272.13 283.628L269.16 294.878ZM276.613 293.88L272.951 292.454L274.284 286.998L278.825 287.718L276.613 293.88Z" fill="#D9D9D9"/>
<path fill-rule="evenodd" clip-rule="evenodd" d="M350 296.5L361 291.5L354 279.5L344 284.766L350 296.5ZM356.5 290L351.5 292.5L347.5 286L352.5 283L356.5 290Z" fill="#D9D9D9"/>
<path fill-rule="evenodd" clip-rule="evenodd" d="M359.942 326.9L349.025 321.722L344.373 334.812L354.848 339.054L359.942 326.9ZM350.782 326.128L355.918 328.335L353.532 335.585L348.014 333.7L350.782 326.128Z" fill="#D9D9D9"/>
<path fill-rule="evenodd" clip-rule="evenodd" d="M347.742 317.744L361.702 318.938L362.517 301.457L350.03 300.875L347.742 317.744ZM357.668 314.746L351.899 314.477L352.351 304.779L358.121 305.048L357.668 314.746Z" fill="#D9D9D9"/>
<path fill-rule="evenodd" clip-rule="evenodd" d="M349.423 343.624L341.016 337.097L333.288 347.156L342.744 353.152L349.423 343.624ZM342.085 341.982L345.027 344.587L341.889 349.245L337.877 346.997L342.085 341.982Z" fill="#D9D9D9"/>
<path fill-rule="evenodd" clip-rule="evenodd" d="M335.858 358.29L329.673 349.628L319.388 357.051L326.729 365.505L335.858 358.29ZM329.298 354.614L331.371 357.952L327.029 361.516L323.83 358.214L329.298 354.614Z" fill="#D9D9D9"/>
<path fill-rule="evenodd" clip-rule="evenodd" d="M269.16 294.878L279.306 298.093L283.076 285.982L272.13 283.628L269.16 294.878ZM276.613 293.88L272.951 292.454L274.284 286.998L278.825 287.718L276.613 293.88Z" fill="#D9D9D9"/>
<path fill-rule="evenodd" clip-rule="evenodd" d="M350 296.5L361 291.5L354 279.5L344 284.766L350 296.5ZM356.5 290L351.5 292.5L347.5 286L352.5 283L356.5 290Z" fill="#D9D9D9"/>
<path fill-rule="evenodd" clip-rule="evenodd" d="M359.942 326.9L349.025 321.722L344.373 334.812L354.848 339.054L359.942 326.9ZM350.782 326.128L355.918 328.335L353.532 335.585L348.014 333.7L350.782 326.128Z" fill="#D9D9D9"/>
<path fill-rule="evenodd" clip-rule="evenodd" d="M347.742 317.744L361.702 318.938L362.517 301.457L350.03 300.875L347.742 317.744ZM357.668 314.746L351.899 314.477L352.351 304.779L358.121 305.048L357.668 314.746Z" fill="#D9D9D9"/>
<path d="M104.5 279L449.5 87L448 103.5L463.5 111L99 315L57 289.5L23.5 308V351.5L54 369L74.5 358.5L86 365.5L54 383L2 354.5V299L70.5 260L104.5 279Z" fill="#D9D9D9"/>
<path d="M938.395 288.655L588.626 89V103.5L573.5 110.451L938.395 314.113L980.44 288.655L1013.98 307.124V350.552L983.444 368.023L962.921 357.541L951.409 364.529L983.444 382L1035.5 353.547V298.139L971.321 267.177L938.395 288.655Z" fill="#D9D9D9"/>
<path fill-rule="evenodd" clip-rule="evenodd" d="M462 1199.5V1137.5L516 1106.5L571.5 1137.5V1199.5L516 1229.5L462 1199.5ZM493 1147.5V1172L516 1186L540 1172V1147.5L516 1134L493 1147.5ZM483.5 1195.5V1180L516 1199.5L550.5 1180V1195.5L516 1213L483.5 1195.5Z" fill="#D9D9D9"/>
<path d="M504 1152V1166L516 1174.5L528.5 1166V1152L516 1145L504 1152Z" fill="#D9D9D9"/>
<path fill-rule="evenodd" clip-rule="evenodd" d="M463.5 93V31L517.5 0L573 31V93L517.5 123L463.5 93ZM494.5 41V65.5L517.5 79.5L541.5 65.5V41L517.5 27.5L494.5 41ZM485 89V73.5L517.5 93L552 73.5V89L517.5 106.5L485 89Z" fill="#D9D9D9"/>
<path d="M505.5 45.5V59.5L517.5 68L530 59.5V45.5L517.5 38.5L505.5 45.5Z" fill="#D9D9D9"/>
<path fill-rule="evenodd" clip-rule="evenodd" d="M491.5 1071.83V1044.61L515.664 1031L540.5 1044.61V1071.83L515.664 1085L491.5 1071.83ZM505.372 1049V1059.76L515.664 1065.9L526.404 1059.76V1049L515.664 1043.07L505.372 1049ZM501.121 1070.07V1063.27L515.664 1071.83L531.103 1063.27V1070.07L515.664 1077.76L501.121 1070.07Z" fill="#D9D9D9"/>
<path d="M510.295 1050.98V1057.12L515.664 1060.85L521.258 1057.12V1050.98L515.664 1047.9L510.295 1050.98Z" fill="#D9D9D9"/>
<path fill-rule="evenodd" clip-rule="evenodd" d="M540.5 168.171V195.39L516.336 209L491.5 195.39V168.171L516.336 155L540.5 168.171ZM526.628 191V180.244L516.336 174.098L505.596 180.244V191L516.336 196.927L526.628 191ZM530.879 169.927V176.732L516.336 168.171L500.897 176.732V169.927L516.336 162.244L530.879 169.927Z" fill="#D9D9D9"/>
<path d="M521.705 189.024V182.878L516.336 179.146L510.742 182.878V189.024L516.336 192.098L521.705 189.024Z" fill="#D9D9D9"/>
<path d="M9 853V382L34 397V835.519L9 853Z" fill="#D9D9D9"/>
<path d="M1028 852V380L1004 398.019V834.481L1028 852Z" fill="#D9D9D9"/>
<path d="M446.5 1125.5V1145.5L97 951.5L65 978L0 943.5V883.5L55 848.5L86 867.5L75 874.5L55 865L24.5 883.5V925L59 943.5L97 917.5L459 1117L446.5 1125.5Z" fill="#D9D9D9"/>
<path d="M584.136 1126V1147L937.443 953L969.792 978.5L1035.5 944V884L979.901 849L948.563 868L959.683 875L979.901 865.5L1010.73 884V925.5L975.857 944L937.443 918L571.5 1117.5L584.136 1126Z" fill="#D9D9D9"/>
<g filter="url(#filter0_d_65_18)">
<path d="M552 245.979V465.863C555.815 461.876 560.563 458.34 564.22 456.141V249.961C560.204 248.421 556.1 247.099 552 245.979Z" fill="#8B8B8B"/>
<path d="M479.069 464.422V247.49C475.149 248.732 471.268 250.148 467.5 251.737C467.863 317.158 468.372 449.545 467.5 455.723C470.969 457.099 475.219 459.744 479.069 464.422Z" fill="#8B8B8B"/>
<path d="M479.069 639.539V503.317C475.857 503.815 471.461 503.592 468.59 502.5L467.5 663.611L479.069 639.539Z" fill="#8B8B8B"/>
<path d="M556.5 504C554.754 504.134 553.26 503.836 552 503.317V629L564.22 656.589V502.5C561.893 503.535 559.521 503.768 556.5 504Z" fill="#8B8B8B"/>
<path d="M440.5 445.5C444 451 444 451.5 444 459.5C444 463.217 443.724 464.447 442.76 468.736C442.428 470.217 442.013 472.062 441.5 474.5C439.5 484 444.5 492.5 448.5 496.5C452.5 500.5 454 503.667 455 506C457.37 513.9 453.499 521.107 448.5 526.743C432.349 523.221 381 499.054 364 491.5C347 483.946 322.4 463.335 305 445.5C285 425 293 384.5 297 378.5C301 372.5 323.5 355 333.5 340.5C343.5 326 340.5 315 340 305.5C339.5 296 330.5 282.5 317 281C303.5 279.5 289.5 288 287 296C285 302.4 285.167 312.333 285.5 316.5C283.667 316.667 279.6 316.3 278 313.5C276.4 310.7 278.333 307 279.5 305.5C279.5 304.167 278.6 301.8 275 303C270.5 304.5 269.5 309.5 269.5 312C269.5 314.5 272.5 325 283.5 325.5C294.5 326 296 321 296 320C296 319 294.5 307.5 299.5 300.5C304.5 293.5 312 293 315 294C318 295 327 299.5 326 309C325 318.5 327 324 315 334C303 344 288.5 353.5 279.5 367.5C270.5 381.5 269.5 398.5 269.5 408C269.5 417.5 273.5 443 289 461.5C304.5 480 344.421 509.268 355 516C371.5 526.5 396.9 538.574 400.5 550.319C386.156 552.403 365.018 550.844 338 542.5C310.8 534.1 263 506 248.5 491.5C234 477 217.428 455.077 213.5 432C209.735 409.883 192.413 394.181 177.706 383.474C176.786 382.805 175.883 382.147 175 381.5C163 372.7 143.667 372.667 137 373C147.667 378.167 175.324 393.063 187 418.5C192.136 429.69 194.446 438.794 196.67 447.559C200.508 462.685 208.017 486.072 223 503.317C237.983 520.562 257.5 532.5 292 552.5C326.5 572.5 385.333 573.833 407.5 572.5C400.7 582.1 386.667 588.833 380.5 591C333.805 601.673 311.634 595.734 286.545 589.012C238.181 575.422 215 552.5 202 537.135C189 521.77 151 498.757 138 491.5L89 467C89.3333 471.833 95.6 484.98 118 498.898C146 516.296 167.5 533 186 559.5C204.5 586 255.5 621.275 297 627.5C338.5 633.725 384.5 627.5 412 618C434 610.4 438.542 614 442 618C445.458 622 417.5 678.5 403.5 696L402.937 696.703C389.185 713.902 377.416 728.621 334.5 737.5C291 746.5 267 753 227 770.5C195 784.5 163.333 818.667 151.5 834C145 843.5 133.2 861.6 138 858C138.851 857.361 140.85 855.676 143.783 853.203C161.517 838.251 213.385 794.517 252 779.5C274.989 770.56 296.803 769.319 318.043 768.11C338.38 766.953 358.19 765.826 378 758C413.371 744.026 427.003 724.332 446.209 696.586L446.211 696.584L446.214 696.579L446.218 696.573C449.001 692.553 451.9 688.365 455 684C459.443 677.743 463.628 670.802 467.5 663.611L468.59 502.5C468.196 502.35 467.83 502.183 467.5 502C463 499.5 456.178 489.141 455 486C453.5 482 452.541 471.837 454.5 464C456 458 458.5 455 461 454.5C462.064 454.287 464.488 454.527 467.5 455.723C468.372 449.545 467.863 317.158 467.5 251.737C458.293 255.621 449.763 260.542 443 266.5C422 285 403.5 306.5 401.5 357C400.103 392.272 428.206 429.222 437.691 441.693L437.692 441.695C439.071 443.507 440.056 444.802 440.5 445.5Z" fill="#D9D9D9"/>
<path d="M592 448.5C598 443 607 432.1 613 422.5C620.5 410.5 634 380.5 633 348C632.123 319.51 620.546 300.513 607.5 282.815C594.454 265.118 568.5 251.702 568.5 251.702C567.087 251.093 565.659 250.513 564.22 249.961V456.141C565.97 455.089 567.47 454.343 568.5 454C569.656 453.615 572 454.5 574 456.5C576.5 459 580 468 579.5 474C579.436 474.764 579.389 475.528 579.341 476.298L579.341 476.3C579.014 481.57 578.671 487.084 573 494.5C569.521 499.05 566.901 501.308 564.22 502.5V656.589L564.231 656.618L564.335 656.919C565.307 659.713 566.203 662.422 567 665C575.5 692.5 606.5 735.5 638.5 753C664.473 767.204 678.917 767.244 695.468 767.29L724.155 767.379H724.157H724.159H724.16C742.5 767.29 758.939 766.221 783 777.5C808.6 789.5 843.5 813.5 857.5 825C870.333 832.667 897.6 853.9 900 851.5C903 848.5 838 781.58 809 767.29C780 753 761.567 737.5 713 737.5C687.5 737.5 680.5 736 665 726C649.5 716 625 693.5 612.5 673.5C602.5 657.5 582.5 610 584.5 606.5C586.5 603 596.3 604.2 601.5 609C608 615 621 623 643.5 627.5C664.72 631.744 693 630.5 721.5 629C750 627.5 795 603.5 809 594.142C823 584.785 837 571 852 548.5C867 526 883.5 512 888 507C891.145 503.505 894.779 501.476 901.291 497.839C904.096 496.273 907.436 494.408 911.5 492C925 484 906.5 488.5 883.5 498C865.1 505.6 850 524.989 839 535.5C828 546.011 814.5 558 796 569.5C777.5 581 747.5 592.668 722.5 595.5C697.5 598.332 675 597.137 659 594.5C646 592.358 630.5 584.167 627.5 579.5C640.167 580.833 667 581.5 687.5 576C705.055 571.29 716.357 566.181 731.5 558.5C739.235 554.576 746.99 548.086 759 541.5C774.5 533 804.353 510.029 817.11 495.101C825.643 483.9 843.467 457.4 846.5 441C849 429.5 850.7 410.6 857.5 399C864.3 387.4 882 380.833 890 379C898.833 375.167 909.7 368.7 882.5 373.5C848.5 379.5 836 397.5 833 415C830.369 430.349 812 464.422 796 478.5C790.725 483.141 787 489.857 761 507.713C735 525.569 714.5 536 690 543.5C660 550 646 547.5 646 545.5C646 543.5 645.667 541.5 663 532.5C689 519 713.5 496.298 731.5 476.298C747.611 458.397 759 439.5 763.5 422.5C768 405.5 762.5 381.5 761 375.5C759.5 369.5 747.5 353.5 736.5 348C727.7 343.6 715.833 330.167 711 324C709.333 320.333 706.4 311.1 708 303.5C710 294 718 292.5 722.5 292C727 291.5 734 294 736.5 299.5C738.5 303.9 737.333 314 736.5 318.5C736 321.333 736.9 327 744.5 327C753.919 327 758.423 321.594 760.935 318.578L761 318.5C763.5 315.5 764.5 311 763.5 307.5C762.7 304.7 758.833 304.667 757 305C757.333 307 757.2 311.8 754 315C750.8 318.2 748.333 316.333 747.5 315C747.667 311.5 747.9 303.5 747.5 299.5C747 294.5 739.5 285 731.5 282.815C723.5 280.631 707.5 279.5 700 290.5C692.5 301.5 687.5 314 697.5 334C707.5 354 731.5 366.5 739.5 385.5C747.5 404.5 742 432 722.5 454C703 476 653 510 624.5 519.5C601.7 527.1 584.333 522.667 578.5 519.5C575.747 513.207 577.015 510.008 577.925 507.713C578.836 505.417 586.5 496.5 589 491C591.5 485.5 593 475.5 589.5 466C586 456.5 586 454 592 448.5Z" fill="#D9D9D9"/>
<path d="M522 241C517.433 240.72 515.553 240.788 510.5 241.204C500.749 242.005 489.765 244.101 479.069 247.49V464.422C479.726 465.221 480.372 466.079 481 467C485.773 474 489 480 489.465 488.5C489.848 495.507 485.094 500.935 481.965 502.5C481.24 502.862 480.232 503.137 479.069 503.317V639.539C486.266 622.866 492 611.5 496 606.5V696.703C495.333 725.469 468.8 787.1 420 833.5C371.2 879.9 416 852.833 444.5 833.5C463.167 820.333 508.5 767.29 517.5 739.5C529.5 767.29 550.5 790.5 570 805.5C589.5 820.5 678.5 901 603.5 814.5C559.714 764 546.5 737.5 537.5 696.703C533 659.407 537.5 603.973 537.5 603.973C539.87 604.61 541.501 605.447 542 606.5C544.83 612.466 547.316 617.949 552 629V503.317C549.152 502.146 547.495 499.853 546.805 498.898C546.663 498.702 546.562 498.562 546.5 498.5C546 498 541.5 484.5 546.5 473.5C547.672 470.921 549.661 468.307 552 465.863V245.979C541.473 243.102 530.966 241.549 522 241Z" fill="#D9D9D9"/>
</g>
<path fill-rule="evenodd" clip-rule="evenodd" d="M33.5 890.5V917L55 930.5L81 913.5V894L130 864.5L122.5 853.5L74 883L55 876.5L33.5 890.5ZM66.5 907.5L58 913.5L49.5 907.5V898L58 892L66.5 898V907.5Z" fill="#D9D9D9"/>
<path fill-rule="evenodd" clip-rule="evenodd" d="M204.5 895.156V918.903L222.101 931L243.386 915.766V898.292L283.5 871.857L277.36 862L237.655 888.435L222.101 882.61L204.5 895.156ZM231.516 910.39L224.557 915.766L217.598 910.39V901.877L224.557 896.5L231.516 901.877V910.39Z" fill="#D9D9D9"/>
<path fill-rule="evenodd" clip-rule="evenodd" d="M321.9 983.216L334.363 1001.19L354.245 1000.96L362.617 978.08L353.447 964.855L370.418 923.46L360.524 919.274L343.867 960.451L328.85 964.337L321.9 983.216ZM350.668 980.34L348.139 988.119L339.967 987.761L335.499 981.318L338.028 973.539L346.2 973.897L350.668 980.34Z" fill="#D9D9D9"/>
<path fill-rule="evenodd" clip-rule="evenodd" d="M75.0377 711.094L64.7439 735.513L79.3116 756.305L109.873 750.739L117.448 732.771L174.059 724.621L171.421 711.572L115.271 719.915L100.288 706.545L75.0377 711.094ZM98.8428 739.578L88.6796 741.805L83.1777 732.975L86.8679 724.221L97.0311 721.994L102.533 730.824L98.8428 739.578Z" fill="#D9D9D9"/>
<path fill-rule="evenodd" clip-rule="evenodd" d="M91.0099 581.613L71.4595 597.093L75.2863 622.391L104.5 633.516L118.886 622.126L172.07 644.576L175.376 632.077L122.513 610.031L115.125 590.847L91.0099 581.613ZM99.6287 618.269L89.7517 614.89L88.7278 604.501L95.7364 598.952L105.613 602.331L106.637 612.719L99.6287 618.269Z" fill="#D9D9D9"/>
<path fill-rule="evenodd" clip-rule="evenodd" d="M954.347 711.094L966.373 735.513L949.353 756.305L913.647 750.739L904.797 732.771L838.657 724.621L841.739 711.572L907.341 719.915L924.847 706.545L954.347 711.094ZM926.535 739.578L938.408 741.805L944.836 732.975L940.525 724.221L928.651 721.994L922.223 730.824L926.535 739.578Z" fill="#D9D9D9"/>
<path fill-rule="evenodd" clip-rule="evenodd" d="M841.921 893.778L844.676 919.357L826.34 932.308L800.703 915.801L798.676 896.978L750.624 868.319L756.366 857.729L803.959 886.387L820.727 880.184L841.921 893.778ZM813.392 910.063L821.819 915.887L828.999 910.127L828.011 900.957L819.584 895.134L812.404 900.894L813.392 910.063Z" fill="#D9D9D9"/>
<path fill-rule="evenodd" clip-rule="evenodd" d="M725.416 988.076L713.178 1007L692.915 1005.58L683.341 984.938L691.047 968.476L668 925L679.5 919L699.996 962.006L717.416 968.476L725.416 988.076ZM695.242 985.706L698.997 993.075L708.416 994.076L713.178 985.706L708.416 978.076L699.996 976.576L695.242 985.706Z" fill="#D9D9D9"/>
<path fill-rule="evenodd" clip-rule="evenodd" d="M941.686 585.613L964.527 601.093L960.056 626.391L925.925 637.516L909.117 626.126L846.981 648.576L843.119 636.077L904.88 614.031L913.512 594.847L941.686 585.613ZM931.616 622.269L943.156 618.89L944.352 608.501L936.164 602.952L924.624 606.331L923.428 616.719L931.616 622.269Z" fill="#D9D9D9"/>
<path fill-rule="evenodd" clip-rule="evenodd" d="M1003.5 891V917.5L980.997 931L953.785 914V894.5L902.5 865L910.35 854L961.111 883.5L980.997 877L1003.5 891ZM968.961 908L977.858 914L986.754 908V898.5L977.858 892.5L968.961 898.5V908Z" fill="#D9D9D9"/>
<path fill-rule="evenodd" clip-rule="evenodd" d="M1002.64 342.014L1003.42 315.525L980.853 301.356L952.589 317.532L952.016 337.023L898.823 364.972L906.509 376.202L959.168 348.238L979.266 355.332L1002.64 342.014ZM967.897 323.984L977.15 318.254L986.051 324.518L985.771 334.014L976.518 339.745L967.618 333.48L967.897 323.984Z" fill="#D9D9D9"/>
<path fill-rule="evenodd" clip-rule="evenodd" d="M32.6609 343.856L30.5668 317.439L51.9323 302.203L80.403 317L81.9439 336.439L135.4 361.794L128.444 373.38L75.5096 347.983L56.1994 356.034L32.6609 343.856ZM65.7484 324.18L56.4057 318.902L48.0113 325.586L48.762 335.056L58.1047 340.335L66.4991 333.65L65.7484 324.18Z" fill="#D9D9D9"/>
<path d="M457.679 872.377C458.662 872.074 459.364 871.953 459.785 872.014C460.201 871.991 460.62 872.01 461.041 872.071C461.561 872.377 462.003 872.771 462.366 873.252C462.473 874.998 462.539 876.747 462.563 878.499C462.665 880.162 462.77 881.867 462.877 883.614C463.072 886.775 463.307 889.933 463.585 893.089C463.862 896.245 464.056 899.406 464.167 902.571C464.38 903.311 464.447 903.725 464.369 903.812C464.291 903.9 464.257 904.027 464.267 904.193C464.461 907.354 464.736 910.469 465.092 913.537C465.447 916.606 465.722 919.72 465.916 922.881L466.936 939.475C467.156 943.051 467.456 946.582 467.837 950.066C468.301 953.546 468.641 957.033 468.855 960.526C468.876 960.859 468.696 961.328 468.316 961.933C468.19 962.607 467.974 963.161 467.666 963.595C466.923 963.718 466.208 963.632 465.521 963.335C465.189 963.353 464.947 963.491 464.795 963.749C464.722 963.92 464.566 964.095 464.327 964.275C463.661 964.311 463.131 964.507 462.735 964.862C462.339 965.217 461.85 965.41 461.268 965.441C460.768 965.468 460.264 965.412 459.755 965.273C459.333 965.212 458.832 965.197 458.249 965.228C458.083 965.237 457.841 965.376 457.523 965.643C457.211 965.994 456.974 966.215 456.813 966.307C456.396 966.33 456.025 966.391 455.697 966.492C455.374 966.677 455.005 966.78 454.589 966.802C454.152 966.492 453.914 966.004 453.873 965.339C453.915 964.669 453.64 964.267 453.047 964.132C453.022 963.716 452.993 963.258 452.963 962.759C453.015 962.256 453.026 961.754 452.996 961.255C452.796 958.011 452.514 954.772 452.148 951.537C451.777 948.219 451.451 944.94 451.168 941.701C450.998 940.291 450.872 938.921 450.79 937.59C450.787 936.172 450.741 934.756 450.654 933.342C450.608 932.593 450.562 931.844 450.516 931.096C450.47 930.347 450.344 929.645 450.137 928.988C449.632 928.932 449.18 929.04 448.779 929.312C448.456 929.496 448.087 929.599 447.671 929.622C445.959 930.298 444.83 930.943 444.283 931.557C443.784 931.583 443.373 931.689 443.05 931.873C442.728 932.058 442.363 932.244 441.958 932.433C441.302 932.635 440.647 932.837 439.991 933.039C439.414 933.154 438.8 933.354 438.15 933.639C437.744 933.828 437.338 934.017 436.932 934.206C436.526 934.394 436.12 934.583 435.714 934.772C434.82 935.154 433.925 935.536 433.03 935.918C432.13 936.217 431.232 936.557 430.337 936.939C429.432 937.155 428.657 937.447 428.012 937.815C427.367 938.184 426.721 938.552 426.076 938.921C425.734 942.862 425.631 946.623 425.767 950.204C425.982 953.697 426.322 957.184 426.786 960.664C426.65 961.172 426.603 961.758 426.643 962.424C426.679 963.006 426.585 963.512 426.361 963.941C425.461 964.24 424.839 964.315 424.496 964.167C424.231 963.931 423.927 963.738 423.584 963.59C423.257 963.691 422.976 963.873 422.741 964.136C422.59 964.395 422.437 964.611 422.28 964.787C421.615 964.823 421.084 965.018 420.688 965.373C420.371 965.641 420.051 965.867 419.728 966.051C419.484 966.147 419.234 966.161 418.979 966.091C418.724 966.021 418.436 966.079 418.113 966.263C417.281 966.308 416.86 966.247 416.85 966.081C416.917 965.827 416.827 965.706 416.577 965.72C416.244 965.738 416.005 965.917 415.859 966.259C415.791 966.513 415.596 966.732 415.273 966.917C414.95 967.101 414.584 967.246 414.173 967.351C413.756 967.374 413.346 967.479 412.94 967.668C412.498 967.275 412.262 966.828 412.231 966.329C412.201 965.83 411.964 965.384 411.523 964.99C411.285 963.835 411.091 962.719 410.941 961.642C410.87 960.478 410.674 959.32 410.352 958.169C410.376 955.831 410.302 953.957 410.132 952.548C410.045 951.134 409.956 949.678 409.864 948.181C409.782 946.85 409.659 945.521 409.494 944.195C409.329 942.869 409.164 941.542 408.999 940.216C408.684 937.813 408.367 935.368 408.047 932.882C407.811 930.391 407.616 927.898 407.463 925.403C407.335 923.323 407.293 921.281 407.337 919.276C407.464 917.266 407.463 915.222 407.335 913.142C407.249 911.728 407.164 910.356 407.082 909.025C407.079 907.606 407.033 906.19 406.947 904.776C406.875 903.612 406.764 902.491 406.615 901.414C406.543 900.25 406.474 899.127 406.408 898.046C406.331 896.798 406.34 895.587 406.435 894.414C406.525 893.157 406.534 891.947 406.463 890.782C406.376 889.368 406.208 888 405.96 886.679C405.707 885.274 405.537 883.864 405.45 882.45C405.424 882.034 405.443 881.658 405.505 881.32C405.563 880.9 405.579 880.482 405.554 880.066C405.414 879.156 405.423 878.613 405.579 878.437C405.73 878.179 405.878 877.879 406.024 877.537C406.435 877.432 406.885 877.282 407.374 877.089C407.863 876.896 408.321 876.871 408.747 877.015C409.216 876.489 409.866 876.204 410.699 876.159C411.614 876.11 412.262 875.783 412.642 875.178C413.23 875.23 413.607 875.251 413.773 875.242C414.018 875.146 414.223 875.093 414.389 875.084C415.149 875.21 415.523 875.19 415.513 875.023C415.581 874.769 415.739 874.636 415.989 874.622C416.405 874.6 417.032 874.608 417.869 874.646C418.784 874.597 419.419 874.73 419.772 875.044C420.875 879.408 421.609 883.875 421.973 888.445C422.337 893.015 422.657 897.546 422.933 902.038C423.005 903.202 423.121 904.406 423.28 905.649C423.435 906.809 423.465 907.976 423.37 909.149C423.401 909.648 423.39 910.15 423.337 910.653C423.28 911.074 423.266 911.533 423.297 912.032C423.384 913.446 423.393 914.948 423.323 916.537C423.249 918.043 423.255 919.504 423.342 920.918C424.376 921.446 425.221 921.609 425.877 921.407C426.61 921.117 427.302 920.829 427.953 920.544C428.769 920.25 429.503 919.96 430.153 919.675C430.882 919.301 431.613 918.97 432.346 918.68C432.992 918.312 433.684 918.024 434.422 917.817C435.239 917.523 435.975 917.275 436.631 917.073C438.748 916.207 440.814 915.178 442.828 913.985C444.842 912.792 446.91 911.804 449.033 911.022C448.585 906.456 448.223 901.928 447.947 897.436C447.666 892.862 447.388 888.328 447.112 883.837C447.035 882.589 446.956 881.3 446.874 879.969C446.793 878.638 446.797 877.345 446.886 876.088C446.949 875.751 447.017 875.497 447.09 875.326C447.241 875.067 447.304 874.73 447.278 874.314C447.502 873.885 447.776 873.578 448.098 873.394C448.421 873.21 448.655 872.947 448.801 872.605C448.978 872.762 449.155 872.92 449.331 873.077C449.586 873.147 449.841 873.217 450.095 873.286C450.751 873.084 451.118 872.939 451.196 872.852C451.357 872.76 451.518 872.667 451.68 872.575C452.086 872.387 452.621 872.274 453.287 872.238C453.953 872.203 454.494 872.173 454.91 872.151L456.408 872.07L457.679 872.377Z" fill="black" fill-opacity="0.09"/>
<path d="M457.679 872.377C458.662 872.074 459.364 871.953 459.785 872.014C460.201 871.991 460.62 872.01 461.041 872.071C461.561 872.377 462.003 872.771 462.366 873.252C462.473 874.998 462.539 876.747 462.563 878.499C462.665 880.162 462.77 881.867 462.877 883.614C463.072 886.775 463.307 889.933 463.585 893.089C463.862 896.245 464.056 899.406 464.167 902.571C464.38 903.311 464.447 903.725 464.369 903.812C464.291 903.9 464.257 904.027 464.267 904.193C464.461 907.354 464.736 910.469 465.092 913.537C465.447 916.606 465.722 919.72 465.916 922.881L466.936 939.475C467.156 943.051 467.456 946.582 467.837 950.066C468.301 953.546 468.641 957.033 468.855 960.526C468.876 960.859 468.696 961.328 468.316 961.933C468.19 962.607 467.974 963.161 467.666 963.595C466.923 963.718 466.208 963.632 465.521 963.335C465.189 963.353 464.947 963.491 464.795 963.749C464.722 963.92 464.566 964.095 464.327 964.275C463.661 964.311 463.131 964.507 462.735 964.862C462.339 965.217 461.85 965.41 461.268 965.441C460.768 965.468 460.264 965.412 459.755 965.273C459.333 965.212 458.832 965.197 458.249 965.228C458.083 965.237 457.841 965.376 457.523 965.643C457.211 965.994 456.974 966.215 456.813 966.307C456.396 966.33 456.025 966.391 455.697 966.492C455.374 966.677 455.005 966.78 454.589 966.802C454.152 966.492 453.914 966.004 453.873 965.339C453.915 964.669 453.64 964.267 453.047 964.132C453.022 963.716 452.993 963.258 452.963 962.759C453.015 962.256 453.026 961.754 452.996 961.255C452.796 958.011 452.514 954.772 452.148 951.537C451.777 948.219 451.451 944.94 451.168 941.701C450.998 940.291 450.872 938.921 450.79 937.59C450.787 936.172 450.741 934.756 450.654 933.342C450.608 932.593 450.562 931.844 450.516 931.096C450.47 930.347 450.344 929.645 450.137 928.988C449.632 928.932 449.18 929.04 448.779 929.312C448.456 929.496 448.087 929.599 447.671 929.622C445.959 930.298 444.83 930.943 444.283 931.557C443.784 931.583 443.373 931.689 443.05 931.873C442.728 932.058 442.363 932.244 441.958 932.433C441.302 932.635 440.647 932.837 439.991 933.039C439.414 933.154 438.8 933.354 438.15 933.639C437.744 933.828 437.338 934.017 436.932 934.206C436.526 934.394 436.12 934.583 435.714 934.772C434.82 935.154 433.925 935.536 433.03 935.918C432.13 936.217 431.232 936.557 430.337 936.939C429.432 937.155 428.657 937.447 428.012 937.815C427.367 938.184 426.721 938.552 426.076 938.921C425.734 942.862 425.631 946.623 425.767 950.204C425.982 953.697 426.322 957.184 426.786 960.664C426.65 961.172 426.603 961.758 426.643 962.424C426.679 963.006 426.585 963.512 426.361 963.941C425.461 964.24 424.839 964.315 424.496 964.167C424.231 963.931 423.927 963.738 423.584 963.59C423.257 963.691 422.976 963.873 422.741 964.136C422.59 964.395 422.437 964.611 422.28 964.787C421.615 964.823 421.084 965.018 420.688 965.373C420.371 965.641 420.051 965.867 419.728 966.051C419.484 966.147 419.234 966.161 418.979 966.091C418.724 966.021 418.436 966.079 418.113 966.263C417.281 966.308 416.86 966.247 416.85 966.081C416.917 965.827 416.827 965.706 416.577 965.72C416.244 965.738 416.005 965.917 415.859 966.259C415.791 966.513 415.596 966.732 415.273 966.917C414.95 967.101 414.584 967.246 414.173 967.351C413.756 967.374 413.346 967.479 412.94 967.668C412.498 967.275 412.262 966.828 412.231 966.329C412.201 965.83 411.964 965.384 411.523 964.99C411.285 963.835 411.091 962.719 410.941 961.642C410.87 960.478 410.674 959.32 410.352 958.169C410.376 955.831 410.302 953.957 410.132 952.548C410.045 951.134 409.956 949.678 409.864 948.181C409.782 946.85 409.659 945.521 409.494 944.195C409.329 942.869 409.164 941.542 408.999 940.216C408.684 937.813 408.367 935.368 408.047 932.882C407.811 930.391 407.616 927.898 407.463 925.403C407.335 923.323 407.293 921.281 407.337 919.276C407.464 917.266 407.463 915.222 407.335 913.142C407.249 911.728 407.164 910.356 407.082 909.025C407.079 907.606 407.033 906.19 406.947 904.776C406.875 903.612 406.764 902.491 406.615 901.414C406.543 900.25 406.474 899.127 406.408 898.046C406.331 896.798 406.34 895.587 406.435 894.414C406.525 893.157 406.534 891.947 406.463 890.782C406.376 889.368 406.208 888 405.96 886.679C405.707 885.274 405.537 883.864 405.45 882.45C405.424 882.034 405.443 881.658 405.505 881.32C405.563 880.9 405.579 880.482 405.554 880.066C405.414 879.156 405.423 878.613 405.579 878.437C405.73 878.179 405.878 877.879 406.024 877.537C406.435 877.432 406.885 877.282 407.374 877.089C407.863 876.896 408.321 876.871 408.747 877.015C409.216 876.489 409.866 876.204 410.699 876.159C411.614 876.11 412.262 875.783 412.642 875.178C413.23 875.23 413.607 875.251 413.773 875.242C414.018 875.146 414.223 875.093 414.389 875.084C415.149 875.21 415.523 875.19 415.513 875.023C415.581 874.769 415.739 874.636 415.989 874.622C416.405 874.6 417.032 874.608 417.869 874.646C418.784 874.597 419.419 874.73 419.772 875.044C420.875 879.408 421.609 883.875 421.973 888.445C422.337 893.015 422.657 897.546 422.933 902.038C423.005 903.202 423.121 904.406 423.28 905.649C423.435 906.809 423.465 907.976 423.37 909.149C423.401 909.648 423.39 910.15 423.337 910.653C423.28 911.074 423.266 911.533 423.297 912.032C423.384 913.446 423.393 914.948 423.323 916.537C423.249 918.043 423.255 919.504 423.342 920.918C424.376 921.446 425.221 921.609 425.877 921.407C426.61 921.117 427.302 920.829 427.953 920.544C428.769 920.25 429.503 919.96 430.153 919.675C430.882 919.301 431.613 918.97 432.346 918.68C432.992 918.312 433.684 918.024 434.422 917.817C435.239 917.523 435.975 917.275 436.631 917.073C438.748 916.207 440.814 915.178 442.828 913.985C444.842 912.792 446.91 911.804 449.033 911.022C448.585 906.456 448.223 901.928 447.947 897.436C447.666 892.862 447.388 888.328 447.112 883.837C447.035 882.589 446.956 881.3 446.874 879.969C446.793 878.638 446.797 877.345 446.886 876.088C446.949 875.751 447.017 875.497 447.09 875.326C447.241 875.067 447.304 874.73 447.278 874.314C447.502 873.885 447.776 873.578 448.098 873.394C448.421 873.21 448.655 872.947 448.801 872.605C448.978 872.762 449.155 872.92 449.331 873.077C449.586 873.147 449.841 873.217 450.095 873.286C450.751 873.084 451.118 872.939 451.196 872.852C451.357 872.76 451.518 872.667 451.68 872.575C452.086 872.387 452.621 872.274 453.287 872.238C453.953 872.203 454.494 872.173 454.91 872.151L456.408 872.07L457.679 872.377Z" fill="#D9D9D9"/>
<path d="M517.891 915.615C518.305 916.185 518.527 916.562 518.559 916.747C518.652 916.923 518.678 917.077 518.637 917.21C518.608 917.782 518.67 918.152 518.825 918.319L518.813 919.931C518.784 920.504 518.914 920.896 519.203 921.105C519.142 921.493 519.142 921.872 519.205 922.242C519.257 922.55 519.248 922.868 519.176 923.194C518.074 923.421 517.239 923.545 516.673 923.566C516.168 923.578 515.668 923.621 515.173 923.694C513.875 923.887 512.546 924.084 511.186 924.286C509.877 924.418 508.558 924.487 507.228 924.495C504.487 924.776 502.004 925.082 499.778 925.413C498.717 925.507 497.656 925.602 496.594 925.696C495.595 925.782 494.6 925.898 493.611 926.045C492.292 926.114 491.138 926.223 490.149 926.37C489.149 926.455 488.217 926.562 487.351 926.691C486.856 926.764 486.336 926.873 485.79 927.017C485.306 927.152 484.755 927.266 484.137 927.358C483.519 927.45 482.9 927.541 482.282 927.633C481.715 927.654 481.092 927.715 480.412 927.816C480.215 927.403 480.127 927.069 480.147 926.813C480.167 926.558 480.145 926.245 480.083 925.875C479.762 925.481 479.535 925.072 479.4 924.65C479.265 924.228 479.161 923.801 479.088 923.37C479.035 923.062 478.978 922.723 478.915 922.353C478.914 921.974 478.919 921.626 478.928 921.309C478.773 921.142 478.618 920.976 478.463 920.809C478.37 920.634 478.313 920.484 478.292 920.361C478.332 919.85 478.368 919.497 478.398 919.303C478.563 919.152 478.732 919.032 478.907 918.943C479.134 918.783 479.293 918.601 479.385 918.398C480.529 918.039 481.724 917.798 482.971 917.676C484.207 917.492 485.413 917.313 486.587 917.139C487.576 916.992 488.54 916.88 489.478 916.804C490.415 916.728 491.384 916.647 492.384 916.562C493.579 916.51 494.764 916.398 495.939 916.223C497.175 916.039 498.412 915.856 499.648 915.672C500.761 915.507 501.884 915.403 503.018 915.361C504.213 915.309 505.337 915.206 506.387 915.05C509.973 914.517 513.652 914.16 517.424 913.978C517.673 914.7 517.829 915.245 517.891 915.615Z" fill="black" fill-opacity="0.09"/>
<path d="M517.891 915.615C518.305 916.185 518.527 916.562 518.559 916.747C518.652 916.923 518.678 917.077 518.637 917.21C518.608 917.782 518.67 918.152 518.825 918.319L518.813 919.931C518.784 920.504 518.914 920.896 519.203 921.105C519.142 921.493 519.142 921.872 519.205 922.242C519.257 922.55 519.248 922.868 519.176 923.194C518.074 923.421 517.239 923.545 516.673 923.566C516.168 923.578 515.668 923.621 515.173 923.694C513.875 923.887 512.546 924.084 511.186 924.286C509.877 924.418 508.558 924.487 507.228 924.495C504.487 924.776 502.004 925.082 499.778 925.413C498.717 925.507 497.656 925.602 496.594 925.696C495.595 925.782 494.6 925.898 493.611 926.045C492.292 926.114 491.138 926.223 490.149 926.37C489.149 926.455 488.217 926.562 487.351 926.691C486.856 926.764 486.336 926.873 485.79 927.017C485.306 927.152 484.755 927.266 484.137 927.358C483.519 927.45 482.9 927.541 482.282 927.633C481.715 927.654 481.092 927.715 480.412 927.816C480.215 927.403 480.127 927.069 480.147 926.813C480.167 926.558 480.145 926.245 480.083 925.875C479.762 925.481 479.535 925.072 479.4 924.65C479.265 924.228 479.161 923.801 479.088 923.37C479.035 923.062 478.978 922.723 478.915 922.353C478.914 921.974 478.919 921.626 478.928 921.309C478.773 921.142 478.618 920.976 478.463 920.809C478.37 920.634 478.313 920.484 478.292 920.361C478.332 919.85 478.368 919.497 478.398 919.303C478.563 919.152 478.732 919.032 478.907 918.943C479.134 918.783 479.293 918.601 479.385 918.398C480.529 918.039 481.724 917.798 482.971 917.676C484.207 917.492 485.413 917.313 486.587 917.139C487.576 916.992 488.54 916.88 489.478 916.804C490.415 916.728 491.384 916.647 492.384 916.562C493.579 916.51 494.764 916.398 495.939 916.223C497.175 916.039 498.412 915.856 499.648 915.672C500.761 915.507 501.884 915.403 503.018 915.361C504.213 915.309 505.337 915.206 506.387 915.05C509.973 914.517 513.652 914.16 517.424 913.978C517.673 914.7 517.829 915.245 517.891 915.615Z" fill="#D9D9D9"/>
<path d="M576.674 866.311C576.498 866.678 576.412 867.043 576.418 867.408C576.514 867.771 576.566 868.181 576.573 868.636C576.408 869.732 576.416 870.279 576.598 870.277C576.78 870.274 576.873 870.364 576.876 870.547L575.94 871.926C575.948 872.473 575.819 872.976 575.553 873.436C575.377 873.894 575.34 874.441 575.441 875.078C575.174 875.537 574.908 875.997 574.641 876.456C574.466 876.914 574.154 877.374 573.705 877.836L571.928 877.859C570.926 877.873 569.833 877.979 568.651 878.177C567.559 878.283 566.466 878.343 565.373 878.357C565.19 878.36 564.962 878.363 564.689 878.366C564.414 878.279 564.14 878.237 563.867 878.241C563.684 878.243 563.457 878.292 563.185 878.387C562.912 878.39 562.593 878.395 562.228 878.399C560.861 878.418 559.493 878.39 558.125 878.318C556.846 878.152 555.478 878.08 554.02 878.099C553.655 878.104 553.291 878.109 552.926 878.114C552.561 878.119 552.152 878.17 551.698 878.267C551.63 879.817 551.563 881.413 551.497 883.055C551.521 884.604 551.545 886.199 551.57 887.84C551.577 888.295 551.539 888.797 551.457 889.345C551.372 889.802 551.334 890.258 551.341 890.714C551.268 891.9 551.194 893.041 551.12 894.135C551.136 895.229 551.154 896.368 551.172 897.553C551.211 900.105 551.25 902.657 551.289 905.208C551.419 907.759 551.55 910.355 551.681 912.997C551.793 914.363 551.904 915.683 552.015 916.957C552.126 918.232 552.191 919.553 552.212 920.92C552.26 924.019 552.261 927.118 552.217 930.218C552.172 933.226 552.173 936.28 552.221 939.379C552.236 940.381 552.205 941.339 552.128 942.251C552.049 943.073 552.017 943.984 552.033 944.987C552.065 947.083 552.142 949.179 552.265 951.273C552.389 953.368 552.466 955.464 552.498 957.56C552.513 958.562 552.483 959.566 552.407 960.569C552.423 961.572 552.438 962.574 552.453 963.577C552.009 964.312 551.699 964.954 551.526 965.503C551.352 966.053 550.809 966.333 549.898 966.346C549.257 966.172 548.934 965.948 548.93 965.675C549.019 965.491 548.97 965.31 548.785 965.13C547.964 965.05 547.326 965.104 546.873 965.292C546.513 965.57 546.061 965.804 545.517 965.994C545.242 965.906 544.922 965.865 544.558 965.87C544.284 965.874 544.011 965.877 543.737 965.881C543.555 965.883 543.374 965.931 543.193 966.025C543.013 966.21 542.604 966.306 541.967 966.315C541.421 966.413 541.101 966.327 541.005 966.054C540.91 965.782 540.635 965.649 540.179 965.655C539.727 965.935 539.183 966.124 538.547 966.224C538.003 966.414 537.457 966.512 536.91 966.519C536.358 966.162 536.079 965.801 536.074 965.437C536.16 965.162 536.11 964.844 535.922 964.482C535.828 964.301 535.643 964.075 535.365 963.805C535.177 963.443 534.991 963.172 534.806 962.992C534.968 961.714 535.088 960.573 535.164 959.569C535.239 958.566 535.268 957.471 535.25 956.287C535.214 953.917 535.087 951.594 534.87 949.319C534.653 947.043 534.527 944.72 534.49 942.35C534.479 941.621 534.559 940.845 534.728 940.023C534.898 939.2 534.976 938.333 534.962 937.422C534.769 936.695 534.717 936.286 534.807 936.193C534.895 936.01 534.938 935.827 534.935 935.645C534.927 935.098 534.873 934.552 534.773 934.006C534.765 933.459 534.757 932.912 534.748 932.366C534.732 931.272 534.715 930.178 534.698 929.085C534.773 927.99 534.801 926.896 534.785 925.802C534.778 925.346 534.725 924.891 534.627 924.437C534.619 923.89 534.611 923.389 534.604 922.933C534.501 922.114 534.442 921.249 534.428 920.338C534.505 919.425 534.537 918.513 534.523 917.602C534.456 913.227 534.299 908.899 534.051 904.619C533.895 900.336 533.783 896.008 533.716 891.634C533.684 889.537 533.743 887.395 533.891 885.205C534.131 883.014 534.235 880.825 534.201 878.638C534.197 878.364 534.101 878.001 533.911 877.548C533.722 877.094 533.535 876.778 533.35 876.598C532.894 876.604 532.438 876.61 531.983 876.616C531.617 876.53 531.206 876.49 530.75 876.496C529.748 876.51 528.793 876.659 527.886 876.945C526.156 877.059 524.472 877.218 522.834 877.422C521.286 877.534 519.692 877.647 518.053 877.76C516.958 877.683 516.275 877.693 516.003 877.787C515.82 877.79 515.593 877.793 515.319 877.796C514.59 877.806 514.04 877.631 513.67 877.272L513.643 875.494C513.08 874.408 512.843 873.819 512.933 873.726C513.022 873.634 513.066 873.497 513.063 873.315C513.059 873.041 512.827 872.771 512.367 872.503C511.815 872.146 511.533 871.603 511.522 870.874C511.419 870.146 511.229 869.602 510.95 869.241C510.671 868.88 510.529 868.517 510.523 868.153C510.513 867.515 510.639 866.784 510.9 865.96C511.713 865.493 512.483 865.164 513.209 864.972C514.027 864.779 514.934 864.539 515.933 864.252C516.477 864.062 516.975 863.873 517.428 863.685C517.881 863.497 518.38 863.353 518.926 863.255C519.562 863.155 520.2 863.101 520.838 863.092C521.476 863.084 522.113 863.03 522.749 862.93C524.112 862.638 525.521 862.392 526.977 862.19C528.523 861.987 529.98 861.876 531.347 861.858C532.623 861.841 533.902 862.006 535.183 862.354C536.463 862.61 537.605 862.731 538.607 862.718C540.066 862.698 541.434 862.771 542.713 862.937C544.083 863.1 545.497 863.173 546.955 863.153C547.137 863.151 547.412 863.238 547.779 863.416C548.236 863.501 548.738 863.54 549.285 863.532L562.546 863.355C563.277 863.527 563.779 863.566 564.051 863.471C564.415 863.375 564.733 863.326 565.006 863.322C565.735 863.312 566.42 863.349 567.059 863.431C567.698 863.514 568.383 863.55 569.112 863.54C569.75 863.532 570.25 863.48 570.613 863.384C571.344 863.465 572.031 863.684 572.674 864.04C573.317 864.305 574.048 864.431 574.868 864.421C575.237 864.689 575.516 865.05 575.705 865.503C575.893 865.865 576.216 866.134 576.674 866.311Z" fill="black" fill-opacity="0.09"/>
<path d="M576.674 866.311C576.498 866.678 576.412 867.043 576.418 867.408C576.514 867.771 576.566 868.181 576.573 868.636C576.408 869.732 576.416 870.279 576.598 870.277C576.78 870.274 576.873 870.364 576.876 870.547L575.94 871.926C575.948 872.473 575.819 872.976 575.553 873.436C575.377 873.894 575.34 874.441 575.441 875.078C575.174 875.537 574.908 875.997 574.641 876.456C574.466 876.914 574.154 877.374 573.705 877.836L571.928 877.859C570.926 877.873 569.833 877.979 568.651 878.177C567.559 878.283 566.466 878.343 565.373 878.357C565.19 878.36 564.962 878.363 564.689 878.366C564.414 878.279 564.14 878.237 563.867 878.241C563.684 878.243 563.457 878.292 563.185 878.387C562.912 878.39 562.593 878.395 562.228 878.399C560.861 878.418 559.493 878.39 558.125 878.318C556.846 878.152 555.478 878.08 554.02 878.099C553.655 878.104 553.291 878.109 552.926 878.114C552.561 878.119 552.152 878.17 551.698 878.267C551.63 879.817 551.563 881.413 551.497 883.055C551.521 884.604 551.545 886.199 551.57 887.84C551.577 888.295 551.539 888.797 551.457 889.345C551.372 889.802 551.334 890.258 551.341 890.714C551.268 891.9 551.194 893.041 551.12 894.135C551.136 895.229 551.154 896.368 551.172 897.553C551.211 900.105 551.25 902.657 551.289 905.208C551.419 907.759 551.55 910.355 551.681 912.997C551.793 914.363 551.904 915.683 552.015 916.957C552.126 918.232 552.191 919.553 552.212 920.92C552.26 924.019 552.261 927.118 552.217 930.218C552.172 933.226 552.173 936.28 552.221 939.379C552.236 940.381 552.205 941.339 552.128 942.251C552.049 943.073 552.017 943.984 552.033 944.987C552.065 947.083 552.142 949.179 552.265 951.273C552.389 953.368 552.466 955.464 552.498 957.56C552.513 958.562 552.483 959.566 552.407 960.569C552.423 961.572 552.438 962.574 552.453 963.577C552.009 964.312 551.699 964.954 551.526 965.503C551.352 966.053 550.809 966.333 549.898 966.346C549.257 966.172 548.934 965.948 548.93 965.675C549.019 965.491 548.97 965.31 548.785 965.13C547.964 965.05 547.326 965.104 546.873 965.292C546.513 965.57 546.061 965.804 545.517 965.994C545.242 965.906 544.922 965.865 544.558 965.87C544.284 965.874 544.011 965.877 543.737 965.881C543.555 965.883 543.374 965.931 543.193 966.025C543.013 966.21 542.604 966.306 541.967 966.315C541.421 966.413 541.101 966.327 541.005 966.054C540.91 965.782 540.635 965.649 540.179 965.655C539.727 965.935 539.183 966.124 538.547 966.224C538.003 966.414 537.457 966.512 536.91 966.519C536.358 966.162 536.079 965.801 536.074 965.437C536.16 965.162 536.11 964.844 535.922 964.482C535.828 964.301 535.643 964.075 535.365 963.805C535.177 963.443 534.991 963.172 534.806 962.992C534.968 961.714 535.088 960.573 535.164 959.569C535.239 958.566 535.268 957.471 535.25 956.287C535.214 953.917 535.087 951.594 534.87 949.319C534.653 947.043 534.527 944.72 534.49 942.35C534.479 941.621 534.559 940.845 534.728 940.023C534.898 939.2 534.976 938.333 534.962 937.422C534.769 936.695 534.717 936.286 534.807 936.193C534.895 936.01 534.938 935.827 534.935 935.645C534.927 935.098 534.873 934.552 534.773 934.006C534.765 933.459 534.757 932.912 534.748 932.366C534.732 931.272 534.715 930.178 534.698 929.085C534.773 927.99 534.801 926.896 534.785 925.802C534.778 925.346 534.725 924.891 534.627 924.437C534.619 923.89 534.611 923.389 534.604 922.933C534.501 922.114 534.442 921.249 534.428 920.338C534.505 919.425 534.537 918.513 534.523 917.602C534.456 913.227 534.299 908.899 534.051 904.619C533.895 900.336 533.783 896.008 533.716 891.634C533.684 889.537 533.743 887.395 533.891 885.205C534.131 883.014 534.235 880.825 534.201 878.638C534.197 878.364 534.101 878.001 533.911 877.548C533.722 877.094 533.535 876.778 533.35 876.598C532.894 876.604 532.438 876.61 531.983 876.616C531.617 876.53 531.206 876.49 530.75 876.496C529.748 876.51 528.793 876.659 527.886 876.945C526.156 877.059 524.472 877.218 522.834 877.422C521.286 877.534 519.692 877.647 518.053 877.76C516.958 877.683 516.275 877.693 516.003 877.787C515.82 877.79 515.593 877.793 515.319 877.796C514.59 877.806 514.04 877.631 513.67 877.272L513.643 875.494C513.08 874.408 512.843 873.819 512.933 873.726C513.022 873.634 513.066 873.497 513.063 873.315C513.059 873.041 512.827 872.771 512.367 872.503C511.815 872.146 511.533 871.603 511.522 870.874C511.419 870.146 511.229 869.602 510.95 869.241C510.671 868.88 510.529 868.517 510.523 868.153C510.513 867.515 510.639 866.784 510.9 865.96C511.713 865.493 512.483 865.164 513.209 864.972C514.027 864.779 514.934 864.539 515.933 864.252C516.477 864.062 516.975 863.873 517.428 863.685C517.881 863.497 518.38 863.353 518.926 863.255C519.562 863.155 520.2 863.101 520.838 863.092C521.476 863.084 522.113 863.03 522.749 862.93C524.112 862.638 525.521 862.392 526.977 862.19C528.523 861.987 529.98 861.876 531.347 861.858C532.623 861.841 533.902 862.006 535.183 862.354C536.463 862.61 537.605 862.731 538.607 862.718C540.066 862.698 541.434 862.771 542.713 862.937C544.083 863.1 545.497 863.173 546.955 863.153C547.137 863.151 547.412 863.238 547.779 863.416C548.236 863.501 548.738 863.54 549.285 863.532L562.546 863.355C563.277 863.527 563.779 863.566 564.051 863.471C564.415 863.375 564.733 863.326 565.006 863.322C565.735 863.312 566.42 863.349 567.059 863.431C567.698 863.514 568.383 863.55 569.112 863.54C569.75 863.532 570.25 863.48 570.613 863.384C571.344 863.465 572.031 863.684 572.674 864.04C573.317 864.305 574.048 864.431 574.868 864.421C575.237 864.689 575.516 865.05 575.705 865.503C575.893 865.865 576.216 866.134 576.674 866.311Z" fill="#D9D9D9"/>
<path d="M610.089 892.911C609.868 893.043 609.612 893.137 609.323 893.193C609.105 893.253 608.921 893.351 608.771 893.487C605.621 893.392 602.419 893.653 599.163 894.27C599.828 896.887 600.856 899.415 602.246 901.855C603.636 904.295 604.88 906.799 605.978 909.367C606.356 910.463 606.644 911.195 606.842 911.564C607.111 911.937 607.376 912.381 607.639 912.897C607.867 912.622 608.023 912.344 608.109 912.061C608.265 911.783 608.459 911.47 608.691 911.124C608.779 910.77 608.985 910.207 609.308 909.435C609.635 908.592 609.914 907.997 610.145 907.651C611.03 905.618 611.95 903.587 612.907 901.558C613.938 899.461 614.967 897.4 615.995 895.374C616.798 893.552 617.642 891.625 618.527 889.592C619.415 887.487 620.4 885.603 621.482 883.939C621.717 883.521 622.168 883.079 622.835 882.612C623.506 882.074 624.063 881.673 624.505 881.409C624.856 881.571 625.134 881.765 625.338 881.991C625.614 882.221 625.89 882.451 626.166 882.68C626.742 882.639 627.2 882.807 627.54 883.183C627.952 883.564 628.487 883.628 629.144 883.376C629.635 883.617 629.977 883.957 630.171 884.398C631.214 885.099 632.159 885.579 633.007 885.839C633.926 886.102 634.517 886.492 634.78 887.008C634.841 887.226 634.829 887.477 634.744 887.759C634.663 887.97 634.687 888.222 634.816 888.516C634.656 888.866 634.566 889.256 634.546 889.685C634.529 890.043 634.44 890.396 634.28 890.747C634.032 891.451 633.6 892.252 632.984 893.152C632.368 894.052 631.862 894.886 631.468 895.654C631.314 895.861 631.159 896.104 631.003 896.382C630.85 896.589 630.697 896.796 630.543 897.003C630.06 898.125 629.507 899.208 628.884 900.25C628.333 901.297 627.744 902.377 627.118 903.492C626.808 903.977 626.499 904.463 626.189 904.949C625.883 905.363 625.609 905.85 625.367 906.411C625.207 906.761 625.045 907.147 624.882 907.569C624.794 907.923 624.669 908.275 624.51 908.625C624.122 909.25 623.734 909.875 623.346 910.5C622.958 911.125 622.602 911.823 622.279 912.595L621.544 914.492C621.231 915.049 620.759 915.921 620.13 917.107C619.503 918.221 618.998 919.055 618.613 919.608C618.457 919.887 618.229 920.162 617.929 920.433C617.701 920.707 617.543 921.022 617.454 921.376C616.981 922.283 616.587 923.051 616.27 923.68C615.957 924.237 615.68 924.796 615.438 925.357C615.881 926.599 616.396 927.846 616.982 929.096C617.571 930.274 618.198 931.419 618.863 932.53C619.527 933.641 620.117 934.819 620.632 936.066C621.15 937.24 621.741 938.383 622.405 939.494C623.656 941.855 624.797 944.246 625.83 946.667C626.863 949.088 628.045 951.374 629.377 953.524C630.764 954.529 631.61 955.578 631.917 956.67C632.227 957.69 632.72 958.648 633.394 959.545C633.364 960.188 633.478 960.804 633.737 961.391C634 961.907 634.121 962.38 634.1 962.809C634.08 963.238 633.988 963.664 633.825 964.085C633.168 964.337 632.654 964.597 632.283 964.864C631.986 965.064 631.61 965.438 631.154 965.988C630.861 966.116 630.606 966.21 630.388 966.27C630.242 966.334 629.986 966.428 629.622 966.552C629.196 966.458 628.847 966.261 628.575 965.959C628.37 965.733 628.133 965.434 627.864 965.061C627.078 965.02 626.57 965.136 626.342 965.411C626.186 965.69 625.886 965.961 625.443 966.224C624.868 966.265 624.257 966.305 623.61 966.342C623.034 966.384 622.424 966.387 621.781 966.353C620.851 966.304 619.959 966.221 619.104 966.104C618.249 965.988 617.429 965.908 616.642 965.867C615.14 965.787 613.669 965.817 612.229 965.956C610.788 966.095 609.353 966.127 607.922 966.052C607.565 966.033 607.209 965.978 606.855 965.888C606.501 965.797 606.18 965.744 605.894 965.729C605.322 965.699 604.714 965.667 604.071 965.633C603.499 965.603 602.889 965.606 602.242 965.644C601.748 965.474 601.251 965.376 600.75 965.35C600.246 965.395 599.708 965.402 599.136 965.372C598.564 965.342 598.067 965.244 597.645 965.078C597.219 964.984 596.757 964.888 596.26 964.79C595.834 964.696 595.371 964.636 594.871 964.609C594.442 964.586 594.013 964.564 593.583 964.541C593.011 964.511 592.359 964.656 591.627 964.976C591.273 964.885 590.922 964.723 590.575 964.49C590.295 964.332 589.982 964.136 589.635 963.902C589.059 963.944 588.557 963.953 588.128 963.93C587.699 963.907 587.266 963.956 586.83 964.077C585.625 963.798 584.767 963.753 584.256 963.941C583.394 963.967 582.972 963.801 582.989 963.444C582.56 963.421 582.277 963.334 582.141 963.184C582.005 963.033 581.833 962.88 581.625 962.726C581.342 962.639 581.022 962.587 580.664 962.568C580.378 962.553 580.056 962.536 579.699 962.517C579.743 961.587 579.886 960.841 580.127 960.28C580.444 959.652 580.689 959.019 580.862 958.383C580.838 957.378 581.098 956.423 581.643 955.52C582.191 954.545 582.814 953.502 583.511 952.391C584.209 951.281 584.903 950.242 585.594 949.274C586.285 948.307 586.784 947.616 587.09 947.202C587.781 946.235 588.367 945.226 588.846 944.175C589.33 943.053 589.988 942.012 590.822 941.053C591.067 940.42 591.227 940.07 591.302 940.002C591.452 939.867 591.566 939.729 591.644 939.59C591.879 939.172 592.08 938.717 592.246 938.223C592.413 937.73 592.614 937.275 592.849 936.857C593.318 936.021 593.788 935.185 594.258 934.35C594.731 933.442 595.202 932.571 595.672 931.735C595.832 931.385 595.993 930.999 596.157 930.577C596.32 930.156 596.483 929.734 596.647 929.312C596.725 929.173 596.881 928.894 597.116 928.477C597.351 928.059 597.623 927.607 597.933 927.121C598.243 926.636 598.515 926.184 598.75 925.766C599.056 925.352 599.249 925.075 599.327 924.936C599.088 923.919 598.701 923.003 598.166 922.185C597.703 921.372 597.279 920.489 596.894 919.537C596.502 918.727 596.004 917.876 595.401 916.984C594.87 916.095 594.445 915.212 594.128 914.335C593.876 913.604 593.489 912.687 592.968 911.584C592.447 910.481 591.889 909.376 591.296 908.269C590.704 907.162 590.071 906.124 589.4 905.157C588.732 904.117 588.16 903.334 587.683 902.807C587.356 902.144 587.029 901.482 586.702 900.819C586.375 900.156 586.046 899.529 585.715 898.938C585.385 898.347 585.018 897.754 584.616 897.159C584.286 896.568 583.959 895.905 583.635 895.171C582.977 893.917 582.282 892.697 581.55 891.511C580.817 890.325 580.158 889.107 579.572 887.856C579.472 886.919 579.322 886.301 579.121 886.004C578.992 885.71 578.862 885.417 578.733 885.123C579.087 883.707 580.011 883.111 581.506 883.333C582.095 883.006 582.539 882.706 582.839 882.435C583.21 882.168 583.787 882.091 584.57 882.204C584.935 882.08 585.553 881.897 586.425 881.657C587.371 881.348 588.059 881.205 588.488 881.228C589.636 881.217 590.424 881.223 590.853 881.245C591.354 881.272 591.814 881.404 592.232 881.641C593.247 881.408 594.259 881.246 595.267 881.156C596.278 880.994 597.288 880.868 598.296 880.778C598.728 880.729 599.445 880.731 600.446 880.784C601.451 880.765 602.527 880.75 603.674 880.739C604.822 880.728 605.862 880.711 606.795 880.689C607.803 880.599 608.42 880.452 608.644 880.249C609.07 880.343 609.462 880.4 609.819 880.418C610.606 880.46 611.277 880.675 611.832 881.063C612.03 881.432 612.192 881.799 612.318 882.164C612.519 882.461 612.754 882.797 613.023 883.169C612.846 883.877 612.703 884.623 612.595 885.406C612.486 886.189 612.239 886.857 611.855 887.41C611.817 888.197 611.681 888.8 611.447 889.218C611.212 889.635 611.118 890.097 611.166 890.601C611.006 890.951 610.809 891.335 610.574 891.753C610.411 892.175 610.249 892.561 610.089 892.911ZM607.249 937.08C606.503 937.686 605.974 938.267 605.661 938.824C605.351 939.31 605.108 939.907 604.931 940.615C604.093 941.646 603.362 942.719 602.735 943.833C602.181 944.951 601.624 946.105 601.066 947.295C600.899 947.788 600.699 948.244 600.464 948.661C600.301 949.083 600.137 949.505 599.974 949.926C599.732 950.487 599.423 950.973 599.045 951.383C598.742 951.726 598.504 952.215 598.33 952.852C598.674 953.157 599.096 953.322 599.597 953.349C600.169 953.379 600.631 953.475 600.981 953.637C601.196 953.648 601.411 953.66 601.625 953.671C601.914 953.615 602.202 953.594 602.488 953.609C603.847 953.681 605.167 953.822 606.447 954.033C607.799 954.248 609.119 954.39 610.406 954.458C612.123 954.548 613.849 954.424 615.586 954.086C615.46 953.721 615.006 952.693 614.226 951.002C613.517 949.315 612.67 947.513 611.685 945.597C610.772 943.684 609.888 941.916 609.032 940.293C608.18 938.599 607.656 937.567 607.458 937.198L607.249 937.08Z" fill="black" fill-opacity="0.09"/>
<path d="M610.089 892.911C609.868 893.043 609.612 893.137 609.323 893.193C609.105 893.253 608.921 893.351 608.771 893.487C605.621 893.392 602.419 893.653 599.163 894.27C599.828 896.887 600.856 899.415 602.246 901.855C603.636 904.295 604.88 906.799 605.978 909.367C606.356 910.463 606.644 911.195 606.842 911.564C607.111 911.937 607.376 912.381 607.639 912.897C607.867 912.622 608.023 912.344 608.109 912.061C608.265 911.783 608.459 911.47 608.691 911.124C608.779 910.77 608.985 910.207 609.308 909.435C609.635 908.592 609.914 907.997 610.145 907.651C611.03 905.618 611.95 903.587 612.907 901.558C613.938 899.461 614.967 897.4 615.995 895.374C616.798 893.552 617.642 891.625 618.527 889.592C619.415 887.487 620.4 885.603 621.482 883.939C621.717 883.521 622.168 883.079 622.835 882.612C623.506 882.074 624.063 881.673 624.505 881.409C624.856 881.571 625.134 881.765 625.338 881.991C625.614 882.221 625.89 882.451 626.166 882.68C626.742 882.639 627.2 882.807 627.54 883.183C627.952 883.564 628.487 883.628 629.144 883.376C629.635 883.617 629.977 883.957 630.171 884.398C631.214 885.099 632.159 885.579 633.007 885.839C633.926 886.102 634.517 886.492 634.78 887.008C634.841 887.226 634.829 887.477 634.744 887.759C634.663 887.97 634.687 888.222 634.816 888.516C634.656 888.866 634.566 889.256 634.546 889.685C634.529 890.043 634.44 890.396 634.28 890.747C634.032 891.451 633.6 892.252 632.984 893.152C632.368 894.052 631.862 894.886 631.468 895.654C631.314 895.861 631.159 896.104 631.003 896.382C630.85 896.589 630.697 896.796 630.543 897.003C630.06 898.125 629.507 899.208 628.884 900.25C628.333 901.297 627.744 902.377 627.118 903.492C626.808 903.977 626.499 904.463 626.189 904.949C625.883 905.363 625.609 905.85 625.367 906.411C625.207 906.761 625.045 907.147 624.882 907.569C624.794 907.923 624.669 908.275 624.51 908.625C624.122 909.25 623.734 909.875 623.346 910.5C622.958 911.125 622.602 911.823 622.279 912.595L621.544 914.492C621.231 915.049 620.759 915.921 620.13 917.107C619.503 918.221 618.998 919.055 618.613 919.608C618.457 919.887 618.229 920.162 617.929 920.433C617.701 920.707 617.543 921.022 617.454 921.376C616.981 922.283 616.587 923.051 616.27 923.68C615.957 924.237 615.68 924.796 615.438 925.357C615.881 926.599 616.396 927.846 616.982 929.096C617.571 930.274 618.198 931.419 618.863 932.53C619.527 933.641 620.117 934.819 620.632 936.066C621.15 937.24 621.741 938.383 622.405 939.494C623.656 941.855 624.797 944.246 625.83 946.667C626.863 949.088 628.045 951.374 629.377 953.524C630.764 954.529 631.61 955.578 631.917 956.67C632.227 957.69 632.72 958.648 633.394 959.545C633.364 960.188 633.478 960.804 633.737 961.391C634 961.907 634.121 962.38 634.1 962.809C634.08 963.238 633.988 963.664 633.825 964.085C633.168 964.337 632.654 964.597 632.283 964.864C631.986 965.064 631.61 965.438 631.154 965.988C630.861 966.116 630.606 966.21 630.388 966.27C630.242 966.334 629.986 966.428 629.622 966.552C629.196 966.458 628.847 966.261 628.575 965.959C628.37 965.733 628.133 965.434 627.864 965.061C627.078 965.02 626.57 965.136 626.342 965.411C626.186 965.69 625.886 965.961 625.443 966.224C624.868 966.265 624.257 966.305 623.61 966.342C623.034 966.384 622.424 966.387 621.781 966.353C620.851 966.304 619.959 966.221 619.104 966.104C618.249 965.988 617.429 965.908 616.642 965.867C615.14 965.787 613.669 965.817 612.229 965.956C610.788 966.095 609.353 966.127 607.922 966.052C607.565 966.033 607.209 965.978 606.855 965.888C606.501 965.797 606.18 965.744 605.894 965.729C605.322 965.699 604.714 965.667 604.071 965.633C603.499 965.603 602.889 965.606 602.242 965.644C601.748 965.474 601.251 965.376 600.75 965.35C600.246 965.395 599.708 965.402 599.136 965.372C598.564 965.342 598.067 965.244 597.645 965.078C597.219 964.984 596.757 964.888 596.26 964.79C595.834 964.696 595.371 964.636 594.871 964.609C594.442 964.586 594.013 964.564 593.583 964.541C593.011 964.511 592.359 964.656 591.627 964.976C591.273 964.885 590.922 964.723 590.575 964.49C590.295 964.332 589.982 964.136 589.635 963.902C589.059 963.944 588.557 963.953 588.128 963.93C587.699 963.907 587.266 963.956 586.83 964.077C585.625 963.798 584.767 963.753 584.256 963.941C583.394 963.967 582.972 963.801 582.989 963.444C582.56 963.421 582.277 963.334 582.141 963.184C582.005 963.033 581.833 962.88 581.625 962.726C581.342 962.639 581.022 962.587 580.664 962.568C580.378 962.553 580.056 962.536 579.699 962.517C579.743 961.587 579.886 960.841 580.127 960.28C580.444 959.652 580.689 959.019 580.862 958.383C580.838 957.378 581.098 956.423 581.643 955.52C582.191 954.545 582.814 953.502 583.511 952.391C584.209 951.281 584.903 950.242 585.594 949.274C586.285 948.307 586.784 947.616 587.09 947.202C587.781 946.235 588.367 945.226 588.846 944.175C589.33 943.053 589.988 942.012 590.822 941.053C591.067 940.42 591.227 940.07 591.302 940.002C591.452 939.867 591.566 939.729 591.644 939.59C591.879 939.172 592.08 938.717 592.246 938.223C592.413 937.73 592.614 937.275 592.849 936.857C593.318 936.021 593.788 935.185 594.258 934.35C594.731 933.442 595.202 932.571 595.672 931.735C595.832 931.385 595.993 930.999 596.157 930.577C596.32 930.156 596.483 929.734 596.647 929.312C596.725 929.173 596.881 928.894 597.116 928.477C597.351 928.059 597.623 927.607 597.933 927.121C598.243 926.636 598.515 926.184 598.75 925.766C599.056 925.352 599.249 925.075 599.327 924.936C599.088 923.919 598.701 923.003 598.166 922.185C597.703 921.372 597.279 920.489 596.894 919.537C596.502 918.727 596.004 917.876 595.401 916.984C594.87 916.095 594.445 915.212 594.128 914.335C593.876 913.604 593.489 912.687 592.968 911.584C592.447 910.481 591.889 909.376 591.296 908.269C590.704 907.162 590.071 906.124 589.4 905.157C588.732 904.117 588.16 903.334 587.683 902.807C587.356 902.144 587.029 901.482 586.702 900.819C586.375 900.156 586.046 899.529 585.715 898.938C585.385 898.347 585.018 897.754 584.616 897.159C584.286 896.568 583.959 895.905 583.635 895.171C582.977 893.917 582.282 892.697 581.55 891.511C580.817 890.325 580.158 889.107 579.572 887.856C579.472 886.919 579.322 886.301 579.121 886.004C578.992 885.71 578.862 885.417 578.733 885.123C579.087 883.707 580.011 883.111 581.506 883.333C582.095 883.006 582.539 882.706 582.839 882.435C583.21 882.168 583.787 882.091 584.57 882.204C584.935 882.08 585.553 881.897 586.425 881.657C587.371 881.348 588.059 881.205 588.488 881.228C589.636 881.217 590.424 881.223 590.853 881.245C591.354 881.272 591.814 881.404 592.232 881.641C593.247 881.408 594.259 881.246 595.267 881.156C596.278 880.994 597.288 880.868 598.296 880.778C598.728 880.729 599.445 880.731 600.446 880.784C601.451 880.765 602.527 880.75 603.674 880.739C604.822 880.728 605.862 880.711 606.795 880.689C607.803 880.599 608.42 880.452 608.644 880.249C609.07 880.343 609.462 880.4 609.819 880.418C610.606 880.46 611.277 880.675 611.832 881.063C612.03 881.432 612.192 881.799 612.318 882.164C612.519 882.461 612.754 882.797 613.023 883.169C612.846 883.877 612.703 884.623 612.595 885.406C612.486 886.189 612.239 886.857 611.855 887.41C611.817 888.197 611.681 888.8 611.447 889.218C611.212 889.635 611.118 890.097 611.166 890.601C611.006 890.951 610.809 891.335 610.574 891.753C610.411 892.175 610.249 892.561 610.089 892.911ZM607.249 937.08C606.503 937.686 605.974 938.267 605.661 938.824C605.351 939.31 605.108 939.907 604.931 940.615C604.093 941.646 603.362 942.719 602.735 943.833C602.181 944.951 601.624 946.105 601.066 947.295C600.899 947.788 600.699 948.244 600.464 948.661C600.301 949.083 600.137 949.505 599.974 949.926C599.732 950.487 599.423 950.973 599.045 951.383C598.742 951.726 598.504 952.215 598.33 952.852C598.674 953.157 599.096 953.322 599.597 953.349C600.169 953.379 600.631 953.475 600.981 953.637C601.196 953.648 601.411 953.66 601.625 953.671C601.914 953.615 602.202 953.594 602.488 953.609C603.847 953.681 605.167 953.822 606.447 954.033C607.799 954.248 609.119 954.39 610.406 954.458C612.123 954.548 613.849 954.424 615.586 954.086C615.46 953.721 615.006 952.693 614.226 951.002C613.517 949.315 612.67 947.513 611.685 945.597C610.772 943.684 609.888 941.916 609.032 940.293C608.18 938.599 607.656 937.567 607.458 937.198L607.249 937.08Z" fill="#D9D9D9"/>
<path fill-rule="evenodd" clip-rule="evenodd" d="M282.5 275.5L289.5 283.5L307.5 270.5L298 261L282.5 275.5ZM290.5 278L288 275.5L296 267.5L299.5 271L290.5 278Z" fill="#D9D9D9"/>
<path fill-rule="evenodd" clip-rule="evenodd" d="M309.675 259.557L309.133 273.557L326.633 273.557L326.633 261.057L309.675 259.557ZM313.133 269.333L313.133 263.557L322.841 263.557L322.841 269.333L313.133 269.333Z" fill="#D9D9D9"/>
<path fill-rule="evenodd" clip-rule="evenodd" d="M340.967 282.965L349.429 273.779L337.732 263.37L330.5 271.86L340.967 282.965ZM344.312 274.269L340.97 278.192L334.481 272.417L337.823 268.494L344.312 274.269Z" fill="#D9D9D9"/>
<path fill-rule="evenodd" clip-rule="evenodd" d="M684.044 342.792L692.506 336.039L700.284 346.445L690.766 352.649L684.044 342.792ZM691.43 341.093L688.469 343.787L691.627 348.606L695.665 346.282L691.43 341.093Z" fill="#D9D9D9"/>
<path fill-rule="evenodd" clip-rule="evenodd" d="M697.697 357.965L703.922 349.003L714.274 356.683L706.885 365.429L697.697 357.965ZM704.3 354.161L702.214 357.615L706.583 361.302L709.804 357.886L704.3 354.161Z" fill="#D9D9D9"/>
<path fill-rule="evenodd" clip-rule="evenodd" d="M764.83 292.36L754.618 295.687L750.823 283.157L761.84 280.721L764.83 292.36ZM757.328 291.328L761.013 289.853L759.672 284.208L755.101 284.953L757.328 291.328Z" fill="#D9D9D9"/>
<path fill-rule="evenodd" clip-rule="evenodd" d="M683.463 294.038L672.391 288.865L679.437 276.451L689.502 281.899L683.463 294.038ZM676.921 287.314L681.953 289.9L685.979 283.175L680.947 280.072L676.921 287.314Z" fill="#D9D9D9"/>
<path fill-rule="evenodd" clip-rule="evenodd" d="M673.457 325.49L684.445 320.132L689.127 333.675L678.584 338.064L673.457 325.49ZM682.676 324.69L677.506 326.974L679.908 334.474L685.462 332.524L682.676 324.69Z" fill="#D9D9D9"/>
<path fill-rule="evenodd" clip-rule="evenodd" d="M685.736 316.017L671.685 317.253L670.865 299.167L683.433 298.565L685.736 316.017ZM675.745 312.915L681.552 312.637L681.097 302.604L675.29 302.882L675.745 312.915Z" fill="#D9D9D9"/>
<path fill-rule="evenodd" clip-rule="evenodd" d="M751.5 272.467L744.5 281L726.5 267.133L736 257L751.5 272.467ZM743.5 275.133L746 272.467L738 263.933L734.5 267.667L743.5 275.133Z" fill="#D9D9D9"/>
<path fill-rule="evenodd" clip-rule="evenodd" d="M724.05 255.818L724.597 270.303L706.982 270.303L706.982 257.37L724.05 255.818ZM720.57 265.932L720.57 259.957L710.799 259.957L710.799 265.932L720.57 265.932Z" fill="#D9D9D9"/>
<path fill-rule="evenodd" clip-rule="evenodd" d="M692.555 280.036L684.038 270.532L695.812 259.763L703.09 268.546L692.555 280.036ZM689.189 271.039L692.552 275.097L699.083 269.123L695.72 265.065L689.189 271.039Z" fill="#D9D9D9"/>
<path d="M935.5 701.5V646L946 637V705L935.5 701.5Z" fill="#D9D9D9"/>
<path d="M726.5 972L805.394 926.155L812.5 931L730 980L726.5 972Z" fill="#D9D9D9"/>
<path d="M321.5 966L241.5 924L234.286 928.526L318.715 973.642L321.5 966Z" fill="#D9D9D9"/>
<path d="M485.211 1052.22L364.716 987L362.716 994.5L485.716 1063L485.211 1052.22Z" fill="#D9D9D9"/>
<path d="M546.629 1052.5L681 992.5L685 1000.5L546.629 1063.5L546.629 1052.5Z" fill="#D9D9D9"/>
<path d="M546.629 1052.5L681 992.5L685 1000.5L546.629 1063.5L546.629 1052.5Z" fill="#D9D9D9"/>
<path d="M92 702V635L82.5 631V704L92 702Z" fill="#D9D9D9"/>
<path fill-rule="evenodd" clip-rule="evenodd" d="M562.541 286.722L555.786 288.063L554.794 278.926L561.955 278.286L562.541 286.722ZM557.962 285.274L560.43 284.598L560.214 280.517L557.272 280.597L557.962 285.274Z" fill="#D9D9D9"/>
<path fill-rule="evenodd" clip-rule="evenodd" d="M554.072 310.756L562.759 308.215L562.517 322.305L554.369 324.023L554.072 310.756ZM560.439 312.167L556.412 313.136L556.149 320.894L560.351 320.336L560.439 312.167Z" fill="#D9D9D9"/>
<path fill-rule="evenodd" clip-rule="evenodd" d="M562.678 303.345L554.044 305.683L554.575 292.501L562.66 290.93L562.678 303.345ZM556.417 301.995L560.416 301.107L560.837 293.85L556.674 294.353L556.417 301.995Z" fill="#D9D9D9"/>
<path fill-rule="evenodd" clip-rule="evenodd" d="M554.363 327.967L563.067 326.352L562.016 339.481L553.891 340.375L554.363 327.967ZM560.554 329.839L556.531 330.392L555.825 337.61L559.997 337.455L560.554 329.839Z" fill="#D9D9D9"/>
<path fill-rule="evenodd" clip-rule="evenodd" d="M555.269 273.297L560.865 274.587L560.038 263.867L554.822 263.164L555.269 273.297ZM559.214 271.748L556.63 271.309L556.093 265.416L558.768 265.529L559.214 271.748Z" fill="#D9D9D9"/>
<path fill-rule="evenodd" clip-rule="evenodd" d="M554.787 246.868L554.118 259.251L560.5 260.553L560.825 248.86L554.787 246.868ZM555.782 256.329L555.997 250.563L558.904 251.001L558.885 257.07L555.782 256.329Z" fill="#D9D9D9"/>
<path fill-rule="evenodd" clip-rule="evenodd" d="M562.197 404.77L555.442 403.252L554.451 413.594L561.611 414.319L562.197 404.77ZM557.618 406.409L560.086 407.174L559.87 411.794L556.929 411.703L557.618 406.409Z" fill="#D9D9D9"/>
<path fill-rule="evenodd" clip-rule="evenodd" d="M553.263 378.282L563.029 381.439L563.097 363.973L553.921 361.837L553.263 378.282ZM560.501 376.538L555.968 375.334L555.859 365.717L560.599 366.412L560.501 376.538Z" fill="#D9D9D9"/>
<path fill-rule="evenodd" clip-rule="evenodd" d="M562.529 386.087L553.895 383.44L554.426 398.362L562.511 400.139L562.529 386.087ZM556.268 387.614L560.267 388.619L560.687 396.834L556.525 396.265L556.268 387.614Z" fill="#D9D9D9"/>
<path fill-rule="evenodd" clip-rule="evenodd" d="M554.53 357.975L563.234 359.804L562.183 344.942L554.058 343.93L554.53 357.975ZM560.721 355.857L556.698 355.23L555.992 347.06L560.164 347.235L560.721 355.857Z" fill="#D9D9D9"/>
<path fill-rule="evenodd" clip-rule="evenodd" d="M555.702 420.814L561.297 419.354L560.471 431.488L555.254 432.284L555.702 420.814ZM559.647 422.568L557.062 423.064L556.526 429.735L559.2 429.607L559.647 422.568Z" fill="#D9D9D9"/>
<path fill-rule="evenodd" clip-rule="evenodd" d="M555.415 451.228L554.746 437.211L561.128 435.737L561.453 448.972L555.415 451.228ZM556.41 440.518L556.625 447.045L559.531 446.549L559.513 439.68L556.41 440.518Z" fill="#D9D9D9"/>
<path fill-rule="evenodd" clip-rule="evenodd" d="M477.679 289.433L470.936 290.645L469.848 281.817L477.003 281.286L477.679 289.433ZM473.084 287.981L475.545 287.358L475.285 283.418L472.344 283.459L473.084 287.981Z" fill="#D9D9D9"/>
<path fill-rule="evenodd" clip-rule="evenodd" d="M469.041 312.872L477.768 310.147L477.59 324.453L469.401 326.333L469.041 312.872ZM475.453 314.198L471.406 315.248L471.178 323.127L475.402 322.491L475.453 314.198Z" fill="#D9D9D9"/>
<path fill-rule="evenodd" clip-rule="evenodd" d="M477.681 306.094L469.058 308.307L469.495 295.395L477.575 293.93L477.681 306.094ZM471.406 304.715L475.402 303.882L475.77 296.775L471.609 297.229L471.406 304.715Z" fill="#D9D9D9"/>
<path fill-rule="evenodd" clip-rule="evenodd" d="M469.319 331.124L478.024 329.587L477.038 342.547L468.908 343.375L469.319 331.124ZM475.526 333.014L471.501 333.533L470.831 340.657L475.006 340.532L475.526 333.014Z" fill="#D9D9D9"/>
<path fill-rule="evenodd" clip-rule="evenodd" d="M470.158 275.894L475.708 276.982L475.023 266.698L469.842 266.164L470.158 275.894ZM474.103 274.297L471.537 273.946L471.079 268.295L473.738 268.33L474.103 274.297Z" fill="#D9D9D9"/>
<path fill-rule="evenodd" clip-rule="evenodd" d="M469.885 251.657L469.351 263.934L475.462 265.465L475.673 253.86L469.885 251.657ZM470.917 261.094L471.074 255.373L473.855 255.916L473.889 261.944L470.917 261.094Z" fill="#D9D9D9"/>
<path fill-rule="evenodd" clip-rule="evenodd" d="M477.386 408.294L470.667 407.01L469.523 416.793L476.658 417.319L477.386 408.294ZM472.792 409.941L475.244 410.61L474.959 414.974L472.024 414.953L472.792 409.941Z" fill="#D9D9D9"/>
<path fill-rule="evenodd" clip-rule="evenodd" d="M468.217 381.054L477.99 384.097L478.124 366.877L468.938 364.837L468.217 381.054ZM475.476 379.283L470.938 378.129L470.866 368.649L475.612 369.3L475.476 379.283Z" fill="#D9D9D9"/>
<path fill-rule="evenodd" clip-rule="evenodd" d="M477.655 389.328L469.025 386.802L469.477 401.463L477.562 403.139L477.655 389.328ZM471.378 390.884L475.377 391.836L475.753 399.907L471.589 399.384L471.378 390.884Z" fill="#D9D9D9"/>
<path fill-rule="evenodd" clip-rule="evenodd" d="M469.519 360.888L478.24 362.673L477.22 347.905L469.076 346.93L469.519 360.888ZM475.73 358.759L471.698 358.152L471.008 350.034L475.19 350.192L475.73 358.759Z" fill="#D9D9D9"/>
<path fill-rule="evenodd" clip-rule="evenodd" d="M470.684 423.957L476.28 422.568L475.496 434.548L470.276 435.284L470.684 423.957ZM474.639 425.727L472.054 426.193L471.541 432.778L474.217 432.678L474.639 425.727Z" fill="#D9D9D9"/>
<path fill-rule="evenodd" clip-rule="evenodd" d="M470.445 454.234L469.777 440.22L476.176 438.739L476.5 451.972L470.445 454.234ZM471.445 443.525L471.66 450.05L474.574 449.551L474.556 442.683L471.445 443.525Z" fill="#D9D9D9"/>
<path fill-rule="evenodd" clip-rule="evenodd" d="M478.382 546.329L470.486 547.542L469.211 538.713L477.591 538.183L478.382 546.329ZM473.001 544.877L475.883 544.254L475.579 540.314L472.134 540.355L473.001 544.877Z" fill="#D9D9D9"/>
<path fill-rule="evenodd" clip-rule="evenodd" d="M478.023 563.426L469.066 566.077L470.179 553.395L478.54 551.508L478.023 563.426ZM471.659 562.425L475.799 561.384L476.543 554.397L472.252 555.075L471.659 562.425Z" fill="#D9D9D9"/>
<path fill-rule="evenodd" clip-rule="evenodd" d="M470.635 533.586L477.135 534.674L476.332 524.39L470.265 523.857L470.635 533.586ZM475.254 531.989L472.25 531.638L471.713 525.987L474.827 526.023L475.254 531.989Z" fill="#D9D9D9"/>
<path fill-rule="evenodd" clip-rule="evenodd" d="M471.293 506.657L470.668 518.934L477.825 520.465L478.072 508.86L471.293 506.657ZM472.502 516.094L472.685 510.373L475.943 510.916L475.982 516.944L472.502 516.094Z" fill="#D9D9D9"/>
<path fill-rule="evenodd" clip-rule="evenodd" d="M477.429 593.911L469.983 590.968L470.173 603.87L477.959 605.873L477.429 593.911ZM472.706 595.283L475.452 596.624L475.78 602.421L472.607 601.86L472.706 595.283Z" fill="#D9D9D9"/>
<path fill-rule="evenodd" clip-rule="evenodd" d="M478.774 572.966L468.667 570.44L469.196 585.101L478.665 586.777L478.774 572.966ZM471.423 574.522L476.106 575.475L476.547 583.545L471.67 583.022L471.423 574.522Z" fill="#D9D9D9"/>
<path fill-rule="evenodd" clip-rule="evenodd" d="M470.742 609.743L477.297 608.354L476.378 620.334L470.265 621.07L470.742 609.743ZM475.375 611.513L472.347 611.979L471.745 618.563L474.88 618.463L475.375 611.513Z" fill="#D9D9D9"/>
<path fill-rule="evenodd" clip-rule="evenodd" d="M470.45 642.225L469.668 628.211L477.162 626.73L477.541 639.963L470.45 642.225ZM471.622 631.516L471.872 638.041L475.285 637.542L475.265 630.674L471.622 631.516Z" fill="#D9D9D9"/>
<path fill-rule="evenodd" clip-rule="evenodd" d="M554.568 544.037L561.356 545.185L562.451 536.824L555.248 536.321L554.568 544.037ZM559.194 542.662L556.716 542.072L556.977 538.34L559.938 538.379L559.194 542.662Z" fill="#D9D9D9"/>
<path fill-rule="evenodd" clip-rule="evenodd" d="M554.877 560.229L562.576 562.74L561.619 550.729L554.433 548.942L554.877 560.229ZM560.347 559.281L556.788 558.296L556.149 551.678L559.837 552.32L560.347 559.281Z" fill="#D9D9D9"/>
<path fill-rule="evenodd" clip-rule="evenodd" d="M561.227 531.968L555.64 532.999L556.329 523.259L561.545 522.753L561.227 531.968ZM557.256 530.456L559.839 530.123L560.3 524.771L557.623 524.805L557.256 530.456Z" fill="#D9D9D9"/>
<path fill-rule="evenodd" clip-rule="evenodd" d="M560.661 506.464L561.199 518.091L555.048 519.541L554.835 508.55L560.661 506.464ZM559.623 515.401L559.465 509.983L556.665 510.498L556.631 516.207L559.623 515.401Z" fill="#D9D9D9"/>
<path fill-rule="evenodd" clip-rule="evenodd" d="M555.388 589.101L561.788 586.314L561.624 598.533L554.932 600.43L555.388 589.101ZM559.447 590.4L557.087 591.671L556.805 597.161L559.532 596.63L559.447 590.4Z" fill="#D9D9D9"/>
<path fill-rule="evenodd" clip-rule="evenodd" d="M554.231 569.264L562.919 566.872L562.464 580.757L554.325 582.345L554.231 569.264ZM560.549 570.738L556.524 571.64L556.145 579.284L560.337 578.788L560.549 570.738Z" fill="#D9D9D9"/>
<path fill-rule="evenodd" clip-rule="evenodd" d="M561.134 604.096L555.501 602.78L556.291 614.126L561.545 614.823L561.134 604.096ZM557.153 605.772L559.755 606.213L560.272 612.449L557.578 612.355L557.153 605.772Z" fill="#D9D9D9"/>
<path fill-rule="evenodd" clip-rule="evenodd" d="M561.386 634.859L562.059 621.587L555.617 620.184L555.291 632.717L561.386 634.859ZM560.379 624.717L560.163 630.897L557.23 630.424L557.248 623.92L560.379 624.717Z" fill="#D9D9D9"/>
<defs>
<filter id="filter0_d_65_18" x="85" y="240.831" width="835.073" height="626.289" filterUnits="userSpaceOnUse" color-interpolation-filters="sRGB">
<feFlood flood-opacity="0" result="BackgroundImageFix"/>
<feColorMatrix in="SourceAlpha" type="matrix" values="0 0 0 0 0 0 0 0 0 0 0 0 0 0 0 0 0 0 127 0" result="hardAlpha"/>
<feOffset dy="4"/>
<feGaussianBlur stdDeviation="2"/>
<feComposite in2="hardAlpha" operator="out"/>
<feColorMatrix type="matrix" values="0 0 0 0 0 0 0 0 0 0 0 0 0 0 0 0 0 0 0.25 0"/>
<feBlend mode="normal" in2="BackgroundImageFix" result="effect1_dropShadow_65_18"/>
<feBlend mode="normal" in="SourceGraphic" in2="effect1_dropShadow_65_18" result="shape"/>
</filter>
</defs>
</svg>
